<svg width="24" height="24" viewBox="0 0 24 24" fill="none" xmlns="http://www.w3.org/2000/svg">
<path d="M19.7304 3.5127H4.26962C3.84269 3.5127 3.49658 3.85877 3.49658 4.28566V18.7143C3.49658 19.1412 3.84269 19.4873 4.26962 19.4873H19.7304C20.1573 19.4873 20.5034 19.1412 20.5034 18.7143V4.28566C20.5034 3.85877 20.1573 3.5127 19.7304 3.5127Z" stroke="#212121" stroke-width="1.4" stroke-linecap="round" stroke-linejoin="round"/>
<path d="M16.5 2.25V5.25" stroke="#212121" stroke-width="1.2" stroke-linecap="round" stroke-linejoin="round"/>
<path d="M7.5 2.25V5.25" stroke="#212121" stroke-width="1.2" stroke-linecap="round" stroke-linejoin="round"/>
<path d="M3.75 7.49609H20.25" stroke="#212121" stroke-width="1.2" stroke-linecap="round" stroke-linejoin="round"/>
<path d="M10.25 11.75H14.25" stroke="#212121" stroke-linecap="round" stroke-linejoin="round"/>
<path d="M10.25 10H14.25" stroke="#212121" stroke-linecap="round" stroke-linejoin="round"/>
<path d="M11.2273 10C11.6974 10 12.1483 10.2084 12.4808 10.5794C12.8132 10.9504 13 11.4536 13 11.9783C13 12.5029 12.8132 13.0061 12.4808 13.3771C12.1483 13.7481 11.6974 13.9565 11.2273 13.9565H10L13 17" stroke="#212121" stroke-linecap="round" stroke-linejoin="round"/>
</svg>
