<svg width="24" height="24" viewBox="0 0 24 24" fill="none" xmlns="http://www.w3.org/2000/svg">
<path d="M18.694 4.48889H3.30603C2.90766 4.48889 2.58472 4.82427 2.58472 5.23797V15.6881C2.58472 16.1018 2.90766 16.4372 3.30603 16.4372H18.694C19.0923 16.4372 19.4153 16.1018 19.4153 15.6881V5.23797C19.4153 4.82427 19.0923 4.48889 18.694 4.48889Z" stroke="#212121" stroke-width="1.4" stroke-linecap="round" stroke-linejoin="round"/>
<path d="M21.5703 8V16.5C21.5703 17.5 20.5 18.5569 19.5 18.5569H5" stroke="#212121" stroke-width="1.2" stroke-linecap="round" stroke-linejoin="round"/>
<path d="M9.25 8.75H13.25" stroke="#212121" stroke-width="1.2" stroke-linecap="round" stroke-linejoin="round"/>
<path d="M9.25 7H13.25" stroke="#212121" stroke-width="1.2" stroke-linecap="round" stroke-linejoin="round"/>
<path d="M10.2273 7C10.6974 7 11.1483 7.2084 11.4808 7.5794C11.8132 7.9504 12 8.4536 12 8.9783C12 9.5029 11.8132 10.0061 11.4808 10.3771C11.1483 10.7481 10.6974 10.9565 10.2273 10.9565H9L12 14" stroke="#212121" stroke-width="1.2" stroke-linecap="round" stroke-linejoin="round"/>
</svg>
