<svg width="24" height="24" viewBox="0 0 24 24" fill="none" xmlns="http://www.w3.org/2000/svg">
<path d="M19.7304 3.5127H4.26962C3.84269 3.5127 3.49658 3.85877 3.49658 4.28566V18.7143C3.49658 19.1412 3.84269 19.4873 4.26962 19.4873H19.7304C20.1573 19.4873 20.5034 19.1412 20.5034 18.7143V4.28566C20.5034 3.85877 20.1573 3.5127 19.7304 3.5127Z" stroke="#212121" stroke-width="1.4" stroke-linecap="round" stroke-linejoin="round"/>
<path d="M16.5 2.25V5.25" stroke="#212121" stroke-width="1.2" stroke-linecap="round" stroke-linejoin="round"/>
<path d="M7.5 2.25V5.25" stroke="#212121" stroke-width="1.2" stroke-linecap="round" stroke-linejoin="round"/>
<path d="M3.75 7.49634H20.25" stroke="#212121" stroke-width="1.2" stroke-linecap="round" stroke-linejoin="round"/>
<path d="M12.1804 15.2728V14.9276C12.1804 14.6506 12.2401 14.395 12.3594 14.1606C12.4808 13.9262 12.6566 13.7376 12.8867 13.5949C13.1168 13.4521 13.397 13.3807 13.7273 13.3807C14.0661 13.3807 14.3505 13.4511 14.5806 13.5917C14.8129 13.7323 14.9886 13.9198 15.108 14.1542C15.2273 14.3886 15.2869 14.6464 15.2869 14.9276V15.2728C15.2869 15.5498 15.2262 15.8055 15.1048 16.0398C14.9855 16.2742 14.8097 16.4628 14.5774 16.6055C14.3452 16.7483 14.0618 16.8197 13.7273 16.8197C13.3928 16.8197 13.1105 16.7483 12.8803 16.6055C12.6502 16.4628 12.4755 16.2742 12.3562 16.0398C12.239 15.8055 12.1804 15.5498 12.1804 15.2728ZM13.2926 14.9276V15.2728C13.2926 15.3942 13.3225 15.5146 13.3821 15.6339C13.4439 15.7511 13.559 15.8097 13.7273 15.8097C13.9041 15.8097 14.0203 15.7522 14.0757 15.6371C14.1332 15.5221 14.1619 15.4006 14.1619 15.2728V14.9276C14.1619 14.7998 14.1353 14.6762 14.082 14.5569C14.0288 14.4376 13.9105 14.3779 13.7273 14.3779C13.559 14.3779 13.4439 14.4376 13.3821 14.5569C13.3225 14.6762 13.2926 14.7998 13.2926 14.9276ZM8.75427 11.5271V11.1819C8.75427 10.9006 8.815 10.6428 8.93645 10.4084C9.06003 10.1741 9.23687 9.98657 9.46699 9.84595C9.6971 9.70532 9.97515 9.63501 10.3011 9.63501C10.6399 9.63501 10.9244 9.70532 11.1545 9.84595C11.3867 9.98657 11.5625 10.1741 11.6818 10.4084C11.8011 10.6428 11.8608 10.9006 11.8608 11.1819V11.5271C11.8608 11.8083 11.8001 12.0651 11.6786 12.2973C11.5593 12.5295 11.3835 12.7149 11.1513 12.8534C10.919 12.9919 10.6357 13.0611 10.3011 13.0611C9.96663 13.0611 9.68432 12.9908 9.4542 12.8502C9.22409 12.7096 9.04937 12.5231 8.93005 12.2909C8.81287 12.0587 8.75427 11.804 8.75427 11.5271ZM9.87927 11.1819V11.5271C9.87927 11.6549 9.9091 11.7763 9.96876 11.8914C10.0284 12.0065 10.1392 12.064 10.3011 12.064C10.478 12.064 10.5941 12.0065 10.6495 11.8914C10.707 11.7763 10.7358 11.6549 10.7358 11.5271V11.1819C10.7358 11.054 10.7092 10.9305 10.6559 10.8111C10.6026 10.6918 10.4844 10.6322 10.3011 10.6322C10.1328 10.6322 10.0199 10.694 9.96237 10.8175C9.90697 10.939 9.87927 11.0604 9.87927 11.1819ZM9.2976 16.5001L13.7976 9.95461H14.7053L10.2053 16.5001H9.2976Z" fill="#212121"/>
</svg>
