<svg width="24" height="24" viewBox="0 0 24 24" fill="none" xmlns="http://www.w3.org/2000/svg">
<path d="M2.50037 6.5C2.50037 5.94772 2.94808 5.5 3.50037 5.5H20.5004C21.0527 5.5 21.5004 5.94772 21.5004 6.5V17.5C21.5004 18.0523 21.0527 18.5 20.5004 18.5H3.50037C2.94808 18.5 2.50037 18.0523 2.50037 17.5V6.5Z" stroke="#212121" stroke-width="1.4"/>
<line x1="22" y1="12.6" x2="1.99997" y2="12.6" stroke="#212121" stroke-width="1.2"/>
<line x1="8.71426" y1="5" x2="8.71426" y2="19" stroke="#212121" stroke-width="1.2"/>
<path d="M8.44429 11.9183C8.42258 11.9194 8.40005 11.9204 8.37675 11.9215C8.11208 11.933 7.75138 11.9388 7.36449 11.9167C6.9757 11.8944 6.57208 11.8445 6.2173 11.749C5.85596 11.6517 5.58532 11.5177 5.42248 11.3548C5.02089 10.9532 4.8515 10.5105 4.84956 10.1029C4.84762 9.6935 5.01424 9.28876 5.34112 8.96187C5.668 8.63499 6.07264 8.46847 6.48191 8.47048C6.88942 8.47248 7.33211 8.64193 7.73374 9.04357C7.90453 9.21436 8.0482 9.4845 8.16014 9.83083C8.27045 10.1721 8.34009 10.5561 8.38275 10.9237C8.42523 11.2896 8.43985 11.6292 8.44374 11.8778C8.44395 11.8916 8.44414 11.9051 8.44429 11.9183Z" stroke="#212121" stroke-width="0.8"/>
<path d="M8.49956 11.9183C8.52127 11.9194 8.5438 11.9204 8.5671 11.9215C8.83177 11.933 9.19247 11.9388 9.57936 11.9167C9.96814 11.8944 10.3718 11.8445 10.7266 11.749C11.0879 11.6517 11.3585 11.5177 11.5214 11.3548C11.923 10.9532 12.0923 10.5105 12.0943 10.1029C12.0962 9.6935 11.9296 9.28876 11.6027 8.96187C11.2758 8.63499 10.8712 8.46847 10.4619 8.47048C10.0544 8.47248 9.61174 8.64193 9.21011 9.04357C9.03931 9.21436 8.89565 9.4845 8.78371 9.83083C8.6734 10.1721 8.60376 10.5561 8.56109 10.9237C8.51861 11.2896 8.504 11.6292 8.50011 11.8778C8.49989 11.8916 8.49971 11.9051 8.49956 11.9183Z" stroke="#212121" stroke-width="0.8"/>
<line x1="8.40296" y1="12.063" x2="11.8071" y2="15.4672" stroke="#212121" stroke-width="0.8"/>
<line y1="-0.4" x2="4.24264" y2="-0.4" transform="matrix(-0.707107 0.707107 0.707107 0.707107 8.52417 12.75)" stroke="#212121" stroke-width="0.8"/>
</svg>
