<svg width="150" height="150" viewBox="0 0 150 150" fill="none" xmlns="http://www.w3.org/2000/svg">
<g clip-path="url(#clip0_4_8)">
<path d="M74.9601 150C116.359 150 149.92 116.421 149.92 75C149.92 33.5786 116.359 0 74.9601 0C33.5608 0 0 33.5786 0 75C0 116.421 33.5608 150 74.9601 150Z" fill="white"/>
<path d="M74.96 150C61.0266 150.022 47.3692 146.142 35.5269 138.798L85.7423 0.77005C94.6294 2.04862 103.219 4.92542 111.082 9.2624C147.372 29.182 160.659 74.7603 140.75 111.076C127.579 135.108 102.355 150.029 74.96 150Z" fill="#6E7BF2"/>
<path d="M49.5329 74.6731C49.5546 73.4091 49.424 72.145 49.148 70.9173H31.8965V77.7388H42.0252C41.6404 80.1579 40.2827 82.3082 38.2714 83.703L38.2351 83.9282L43.688 88.1563L44.0655 88.1926C47.5289 84.9889 49.5329 80.2741 49.5329 74.6731Z" fill="#4285F4"/>
<path d="M31.8966 92.6458C36.8557 92.6458 41.0234 91.0112 44.0657 88.1926L38.2716 83.6958C36.391 84.9598 34.162 85.5991 31.9039 85.5337C27.1408 85.5047 22.9296 82.4245 21.4484 77.8913L21.2306 77.9131L15.5599 82.301L15.4873 82.5044C18.5949 88.7301 24.9481 92.6531 31.8966 92.6458Z" fill="#34A853"/>
<path d="M21.4411 77.8986C21.0417 76.729 20.8312 75.5013 20.8312 74.259C20.8384 73.024 21.0417 71.7963 21.4266 70.6194L21.4193 70.3797L15.676 65.9192L15.4873 66.0064C12.8734 71.2006 12.8734 77.3174 15.4873 82.5116L21.4411 77.8986Z" fill="#FBBC05"/>
<path d="M31.8965 62.9916C34.5321 62.948 37.0734 63.9287 38.9975 65.7303L44.1817 60.6669C40.8563 57.5431 36.449 55.8359 31.8892 55.8868C24.9407 55.8868 18.5875 59.8024 15.4727 66.0209L21.412 70.6339C22.9077 66.1008 27.1262 63.0206 31.8965 62.9916Z" fill="#EB4335"/>
<path d="M78.4524 76.3076V89.6673H74.1831V56.6641H85.5026C88.2254 56.606 90.8683 57.6303 92.836 59.5191C96.6915 63.0715 96.9383 69.0866 93.3805 72.9441C93.2063 73.133 93.0248 73.3146 92.836 73.489C90.8611 75.3632 88.2254 76.373 85.5026 76.3004L78.4524 76.3076ZM78.4524 60.725V72.2467H85.6043C87.1871 72.2976 88.7191 71.6801 89.8228 70.5395C92.0518 68.3965 92.1172 64.8586 89.9753 62.6283C89.9607 62.6138 89.9462 62.5993 89.9317 62.5848C89.8954 62.5484 89.8591 62.5048 89.8228 62.4758C88.7264 61.3134 87.1944 60.6814 85.6043 60.725H78.4524ZM105.724 66.3478C108.882 66.3478 111.373 67.1833 113.195 68.8614C115.018 70.5323 115.932 72.8279 115.932 75.7483V89.6673H111.852V86.529H111.67C109.906 89.1079 107.554 90.401 104.613 90.401C102.319 90.4737 100.075 89.6891 98.3324 88.1853C96.6987 86.8196 95.7693 84.7855 95.8056 82.6569C95.733 80.4775 96.7278 78.3926 98.4703 77.085C100.249 75.7047 102.623 75.0145 105.593 75.0145C107.764 74.9346 109.921 75.4068 111.852 76.3948V75.4213C111.859 73.9684 111.213 72.5881 110.088 71.6728C108.955 70.663 107.488 70.1109 105.971 70.1327C103.691 70.0819 101.549 71.2151 100.315 73.1257L96.5608 70.772C98.6083 67.8226 101.665 66.3478 105.724 66.3478ZM100.198 82.7514C100.191 83.8483 100.721 84.8799 101.607 85.5192C102.551 86.2602 103.727 86.6452 104.925 86.6234C106.726 86.6234 108.447 85.9115 109.725 84.6402C111.068 83.4706 111.845 81.7706 111.845 79.9835C110.509 78.9302 108.657 78.3998 106.276 78.3998C104.736 78.3417 103.212 78.7776 101.941 79.6421C100.874 80.325 100.22 81.4873 100.198 82.7514ZM139.363 67.0888L125.117 99.6198H120.71L125.996 88.2362L116.622 67.0816H121.262L128.036 83.3035H128.131L134.716 67.0816L139.363 67.0888Z" fill="white"/>
</g>
<defs>
<clipPath id="clip0_4_8">
<rect width="150" height="150" fill="white"/>
</clipPath>
</defs>
</svg>
