<svg width="24" height="24" viewBox="0 0 24 24" fill="none" xmlns="http://www.w3.org/2000/svg">
<path d="M7.54987 5.77871C12.6215 0.791996 18.7742 -0.502223 21.2363 2.89672C23.6985 6.29567 21.5346 13.1656 16.4629 18.1523C11.3913 23.1759 5.23867 24.4683 2.73921 21.0324C0.316164 17.5984 2.48012 10.7636 7.54987 5.77871Z" fill="#F06321"/>
<path d="M10.9067 3.11837C10.3476 3.52454 9.78842 4.00457 9.22926 4.52336C4.79136 8.88051 2.9256 14.8642 5.12685 17.857C7.40078 20.8479 12.8452 19.7402 17.3949 15.3442C19.8571 12.981 21.4973 10.2467 22.1683 7.69891C22.3547 5.81574 22.0938 4.15227 21.2364 2.89682C19.2979 0.238218 15.121 0.45792 10.9067 3.11837Z" fill="#AE282E"/>
<path d="M17.3203 3.67214V3.78292C17.2831 4.41064 16.9103 5.18606 16.2393 5.85071C15.2328 6.81076 13.8908 7.18001 13.3298 6.62798C12.696 6.03719 13.0707 4.74297 14.0772 3.70907C15.121 2.71209 16.4629 2.37977 17.0221 2.97057C17.2085 3.15519 17.3203 3.37674 17.3203 3.67214ZM13.4435 20.6262C11.0558 22.3986 8.5955 23.2867 6.20788 22.9174C7.21437 22.9544 8.03633 21.8448 8.70733 20.3678C9.37833 18.8538 9.7511 17.4507 10.0866 16.1196C10.5712 14.0148 10.6085 12.5378 10.3475 12.2055C9.93749 11.6867 9.04282 11.7993 7.99719 12.3901C7.4753 12.6855 6.80431 12.5009 7.589 11.5409C8.40911 10.5808 11.5777 8.28961 12.696 7.92036C13.9653 7.58803 15.3819 8.06806 14.8973 9.43429C14.5599 10.4313 10.1612 21.8078 13.4435 20.6262Z" fill="white"/>
</svg>
