<svg width="71" height="28" viewBox="0 0 71 28" fill="none" xmlns="http://www.w3.org/2000/svg">
<circle cx="59" cy="14" r="12" fill="white"/>
<path d="M54.8054 16.8352V11.9205H55.9205V16.8352H54.8054ZM52.9055 14.9354V13.8203H57.8203V14.9354H52.9055ZM61.9165 18.0994C61.4052 18.0994 60.9506 18.0118 60.5529 17.8366C60.1576 17.6615 59.8451 17.4176 59.6154 17.1051C59.3858 16.7926 59.2638 16.4316 59.2496 16.022H60.5849C60.5967 16.2185 60.6618 16.3902 60.7802 16.5369C60.8986 16.6813 61.056 16.7938 61.2525 16.8743C61.449 16.9548 61.6692 16.995 61.913 16.995C62.1734 16.995 62.4042 16.95 62.6055 16.8601C62.8067 16.7678 62.9641 16.6399 63.0778 16.4766C63.1914 16.3132 63.247 16.125 63.2447 15.9119C63.247 15.6918 63.1902 15.4976 63.0742 15.3295C62.9582 15.1615 62.7901 15.0301 62.57 14.9354C62.3522 14.8407 62.0894 14.7933 61.7816 14.7933H61.1388V13.7777H61.7816C62.0349 13.7777 62.2563 13.7339 62.4457 13.6463C62.6374 13.5587 62.7878 13.4356 62.8967 13.277C63.0056 13.116 63.0588 12.9302 63.0565 12.7195C63.0588 12.5135 63.0127 12.3348 62.918 12.1832C62.8256 12.0294 62.6942 11.9098 62.5238 11.8246C62.3557 11.7393 62.158 11.6967 61.9308 11.6967C61.7082 11.6967 61.5022 11.737 61.3129 11.8175C61.1235 11.898 60.9708 12.0128 60.8548 12.1619C60.7388 12.3087 60.6772 12.4839 60.6701 12.6875H59.4023C59.4118 12.2803 59.529 11.9228 59.7539 11.6151C59.9812 11.3049 60.2842 11.0634 60.663 10.8906C61.0418 10.7154 61.4667 10.6278 61.9379 10.6278C62.4232 10.6278 62.8446 10.719 63.2021 10.9013C63.5619 11.0812 63.8401 11.3239 64.0366 11.6293C64.2331 11.9347 64.3313 12.272 64.3313 12.6413C64.3337 13.0509 64.2129 13.3942 63.9691 13.6712C63.7276 13.9482 63.4104 14.1293 63.0174 14.2145V14.2713C63.5288 14.3423 63.9206 14.5317 64.1928 14.8395C64.4674 15.1449 64.6036 15.5249 64.6012 15.9794C64.6012 16.3866 64.4852 16.7512 64.2532 17.0732C64.0236 17.3928 63.7063 17.6437 63.3015 17.826C62.899 18.0083 62.4374 18.0994 61.9165 18.0994Z" fill="#2A55E5"/>
<circle cx="37" cy="14" r="13" fill="white" stroke="#E7F8EC" stroke-width="2"/>
<path d="M36.9569 6C37.7682 7.39376 38.5865 8.78341 39.3891 10.1824C38.0919 12.4707 36.8135 14.7699 35.4724 17.033C34.9579 17.9017 34.4574 18.7785 33.9487 19.6501C32.2991 19.6601 30.6496 19.6595 29 19.6572C29.0503 19.5442 29.1001 19.4307 29.161 19.3229C31.7582 14.8812 34.3655 10.4453 36.9569 6Z" fill="#AE285D"/>
<path d="M36.9575 14.4972C38.6129 14.4966 40.2683 14.4849 41.9237 14.5124C42.9095 16.231 43.9268 17.9309 44.9038 19.6543C43.2484 19.6625 41.5935 19.656 39.9381 19.6548C38.953 17.9303 37.9239 16.2322 36.9575 14.4972Z" fill="#AE285D"/>
<circle cx="14" cy="14" r="13" fill="white" stroke="#E7F8EC" stroke-width="2"/>
<g clip-path="url(#clip0_769_1547)">
<mask id="mask0_769_1547" style="mask-type:luminance" maskUnits="userSpaceOnUse" x="6" y="6" width="16" height="16">
<path d="M22 6H6V22H22V6Z" fill="white"/>
</mask>
<g mask="url(#mask0_769_1547)">
<path d="M20.9999 13.9288L14.4716 7.40056C14.3553 7.28395 14.212 7.19795 14.0544 7.15023C13.8968 7.1025 13.7298 7.09454 13.5683 7.12706L8.52739 8.13524C8.43061 8.15462 8.34172 8.2022 8.27193 8.27199C8.20214 8.34179 8.15455 8.43067 8.13517 8.52745L7.127 13.5684C7.09454 13.7298 7.10253 13.8968 7.15025 14.0544C7.19797 14.212 7.28394 14.3554 7.4005 14.4717L13.9287 20.9999C14.0216 21.0927 14.1318 21.1664 14.2531 21.2167C14.3745 21.2669 14.5045 21.2928 14.6358 21.2928C14.7672 21.2928 14.8972 21.267 15.0186 21.2167C15.1399 21.1665 15.2501 21.0928 15.343 20.9999L20.9998 15.3431C21.0927 15.2503 21.1664 15.14 21.2166 15.0187C21.2669 14.8974 21.2928 14.7673 21.2928 14.636C21.2928 14.5047 21.2669 14.3746 21.2167 14.2533C21.1664 14.1319 21.0928 14.0217 20.9999 13.9288ZM11.2495 11.9999C11.1012 11.9999 10.9562 11.9559 10.8328 11.8735C10.7095 11.7911 10.6134 11.674 10.5566 11.5369C10.4998 11.3999 10.485 11.2491 10.5139 11.1036C10.5428 10.9581 10.6143 10.8245 10.7192 10.7196C10.8241 10.6147 10.9577 10.5433 11.1032 10.5143C11.2487 10.4854 11.3995 10.5003 11.5365 10.557C11.6736 10.6138 11.7907 10.7099 11.8731 10.8333C11.9555 10.9566 11.9995 11.1016 11.9995 11.2499C11.9995 11.4488 11.9205 11.6396 11.7798 11.7803C11.6392 11.9209 11.4484 11.9999 11.2495 11.9999Z" fill="#008C00"/>
</g>
</g>
<defs>
<clipPath id="clip0_769_1547">
<rect width="16" height="16" fill="white" transform="translate(6 6)"/>
</clipPath>
</defs>
</svg>
