

<svg xmlns="http://www.w3.org/2000/svg" width="16" height="16" viewBox="0 0 16 16">
    <g fill="none" fill-rule="evenodd">
        <path d="M0 0h16v16H0z"/>
        <path fill="#FFF" fill-rule="nonzero" d="M8 5.333a2.666 2.666 0 1 0 0 5.334 2.666 2.666 0 1 0 0-5.334zm5.96 2A5.996 5.996 0 0 0 8.667 2.04V.667H7.333V2.04A5.996 5.996 0 0 0 2.04 7.333H.667v1.334H2.04a5.996 5.996 0 0 0 5.293 5.293v1.373h1.334V13.96a5.996 5.996 0 0 0 5.293-5.293h1.373V7.333H13.96zM8 12.667A4.663 4.663 0 0 1 3.333 8 4.663 4.663 0 0 1 8 3.333 4.663 4.663 0 0 1 12.667 8 4.663 4.663 0 0 1 8 12.667z"/>
    </g>
</svg>
