<svg width="280" height="auto" viewBox="0 0 3301 436" fill="none" xmlns="http://www.w3.org/2000/svg">
<path d="M3033.17 226.465C3093.93 226.465 3143.18 177.21 3143.18 116.45C3143.18 55.6905 3093.93 6.43494 3033.17 6.43494C2972.4 6.43494 2923.15 55.6905 2923.15 116.45C2923.15 177.21 2972.4 226.465 3033.17 226.465Z" fill="white"/>
<path d="M3033.17 226.465C3093.93 226.465 3143.18 177.21 3143.18 116.45C3143.18 55.6905 3093.93 6.43494 3033.17 6.43494C2972.4 6.43494 2923.15 55.6905 2923.15 116.45C2923.15 177.21 2972.4 226.465 3033.17 226.465Z" stroke="#2874F0" stroke-width="11.5806"/>
<path fill-rule="evenodd" clip-rule="evenodd" d="M1874 104H2846.81V115.581H1874V104Z" fill="#DBDBDB"/>
<path d="M3019.09 105.842H3029.13C3034.21 105.797 3038.21 104.485 3041.14 101.906C3044.13 99.3277 3045.62 95.5953 3045.62 90.7095C3045.62 86.0055 3044.39 82.3634 3041.9 79.7855C3039.45 77.1614 3035.7 75.8493 3030.63 75.8493C3026.19 75.8493 3022.56 77.1394 3019.71 79.7172C3016.86 82.2511 3015.43 85.5758 3015.43 89.6927H2998.94C2998.94 84.6262 3000.28 80.0114 3002.95 75.8493C3005.66 71.6884 3009.41 68.454 3014.21 66.146C3019.05 63.794 3024.46 62.6185 3030.43 62.6185C3040.29 62.6185 3048.02 65.106 3053.64 70.0822C3059.29 75.0132 3062.12 81.8886 3062.12 90.7095C3062.12 95.1437 3060.69 99.3277 3057.84 103.263C3055.04 107.154 3051.39 110.094 3046.92 112.084C3052.34 113.939 3056.46 116.857 3059.27 120.837C3062.12 124.819 3063.54 129.568 3063.54 135.087C3063.54 143.953 3060.48 151.011 3054.38 156.258C3048.32 161.505 3040.33 164.129 3030.43 164.129C3020.92 164.129 3013.14 161.595 3007.08 156.529C3001.03 151.462 2997.99 144.722 2997.99 136.308H3014.48C3014.48 140.651 3015.93 144.179 3018.83 146.894C3021.77 149.608 3025.69 150.965 3030.63 150.965C3035.75 150.965 3039.77 149.608 3042.71 146.894C3045.65 144.179 3047.12 140.244 3047.12 135.087C3047.12 129.885 3045.58 125.882 3042.51 123.077C3039.43 120.272 3034.85 118.87 3028.8 118.87H3019.09V105.842Z" fill="#2874F2"/>
<path d="M1643.5 226.465C1704.27 226.465 1753.52 177.21 1753.52 116.45C1753.52 55.6904 1704.27 6.43481 1643.5 6.43481C1582.74 6.43481 1533.49 55.6904 1533.49 116.45C1533.49 177.21 1582.74 226.465 1643.5 226.465Z" fill="white"/>
<path d="M1643.5 226.465C1704.27 226.465 1753.52 177.21 1753.52 116.45C1753.52 55.6904 1704.27 6.43481 1643.5 6.43481C1582.74 6.43481 1533.49 55.6904 1533.49 116.45C1533.49 177.21 1582.74 226.465 1643.5 226.465Z" stroke="#2874F0" stroke-width="11.5806"/>
<path d="M1676.79 162.772H1610.36V151.44L1643.26 115.545C1648.02 110.252 1651.39 105.842 1653.39 102.313C1655.41 98.7395 1656.43 95.1657 1656.43 91.5919C1656.43 86.8879 1655.1 83.0872 1652.42 80.192C1649.81 77.2969 1646.25 75.8493 1641.78 75.8493C1636.44 75.8493 1632.3 77.4787 1629.36 80.7352C1626.41 83.9928 1624.94 88.4478 1624.94 94.1026H1608.46C1608.46 88.0865 1609.82 82.6807 1612.53 77.8852C1615.29 73.0457 1619.2 69.2901 1624.27 66.6219C1629.38 63.9526 1635.26 62.6185 1641.91 62.6185C1651.5 62.6185 1659.06 65.0377 1664.57 69.8784C1670.14 74.6739 1672.92 81.3234 1672.92 89.8282C1672.92 94.7592 1671.52 99.938 1668.72 105.367C1665.95 110.75 1661.41 116.879 1655.08 123.756L1630.92 149.608H1676.79V162.772Z" fill="#2874F0"/>
<path d="M253.828 226.465C314.587 226.465 363.843 177.21 363.843 116.45C363.843 55.6904 314.587 6.43481 253.828 6.43481C193.068 6.43481 143.812 55.6904 143.812 116.45C143.812 177.21 193.068 226.465 253.828 226.465Z" fill="#2874F0"/>
<path d="M253.828 226.465C314.587 226.465 363.843 177.21 363.843 116.45C363.843 55.6904 314.587 6.43481 253.828 6.43481C193.068 6.43481 143.812 55.6904 143.812 116.45C143.812 177.21 193.068 226.465 253.828 226.465Z" stroke="#2874F0" stroke-width="11.5806"/>
<path d="M265.345 162.772H248.925V83.4495L224.701 91.7273V77.8179L263.242 63.6364H265.345V162.772Z" fill="white"/>
<path d="M64.8336 380.179H23.4424L14.1455 405.964H0.710938L38.438 307.168H49.838L87.6323 405.964H74.266L64.8336 380.179ZM27.3775 369.458H60.9657L44.138 323.248L27.3775 369.458ZM95.9112 368.643C95.9112 357.38 98.5805 348.332 103.918 341.502C109.255 334.625 116.245 331.188 124.885 331.188C133.48 331.188 140.288 334.128 145.309 340.009V301.739H157.863V405.964H146.327L145.717 398.092C140.696 404.245 133.707 407.321 124.749 407.321C116.246 407.321 109.301 403.838 103.918 396.871C98.5805 389.905 95.9112 380.812 95.9112 369.594V368.643ZM108.465 370.069C108.465 378.392 110.183 384.906 113.621 389.611C117.06 394.315 121.809 396.668 127.871 396.668C135.833 396.668 141.645 393.094 145.309 385.947V352.223C141.555 345.301 135.788 341.841 128.007 341.841C121.854 341.841 117.06 344.216 113.621 348.965C110.183 353.716 108.465 360.75 108.465 370.069ZM174.351 368.643C174.351 357.38 177.02 348.332 182.358 341.502C187.696 334.625 194.685 331.188 203.325 331.188C211.921 331.188 218.729 334.128 223.75 340.009V301.739H236.302V405.964H224.767L224.157 398.092C219.135 404.245 212.146 407.321 203.19 407.321C194.685 407.321 187.742 403.838 182.358 396.871C177.02 389.905 174.351 380.812 174.351 369.594V368.643ZM186.904 370.069C186.904 378.392 188.624 384.906 192.061 389.611C195.499 394.315 200.25 396.668 206.311 396.668C214.273 396.668 220.085 393.094 223.75 385.947V352.223C219.995 345.301 214.227 341.841 206.446 341.841C200.295 341.841 195.499 344.216 192.061 348.965C188.624 353.716 186.904 360.75 186.904 370.069ZM291.333 343.809C289.433 343.492 287.375 343.334 285.158 343.334C276.926 343.334 271.338 346.839 268.398 353.851V405.964H255.844V332.545H268.058L268.262 341.027C272.379 334.468 278.215 331.188 285.769 331.188C288.212 331.188 290.066 331.504 291.333 332.138V343.809ZM332.046 407.321C322.093 407.321 313.996 404.063 307.754 397.549C301.511 390.99 298.39 382.238 298.39 371.29V368.982C298.39 361.699 299.769 355.209 302.529 349.509C305.334 343.763 309.224 339.285 314.2 336.073C319.221 332.816 324.649 331.188 330.486 331.188C340.03 331.188 347.449 334.332 352.741 340.619C358.035 346.908 360.681 355.909 360.681 367.626V372.85H310.944C311.124 380.088 313.227 385.947 317.254 390.425C321.324 394.858 326.481 397.075 332.724 397.075C337.157 397.075 340.912 396.17 343.989 394.36C347.064 392.551 349.756 390.154 352.063 387.169L359.73 393.139C353.579 402.594 344.35 407.321 332.046 407.321ZM330.486 341.502C325.419 341.502 321.167 343.357 317.729 347.066C314.29 350.73 312.164 355.887 311.35 362.537H348.128V361.587C347.765 355.209 346.047 350.277 342.971 346.794C339.895 343.265 335.733 341.502 330.486 341.502ZM418.017 386.49C418.017 383.097 416.728 380.473 414.151 378.619C411.617 376.718 407.161 375.09 400.783 373.733C394.45 372.376 389.405 370.747 385.651 368.847C381.942 366.948 379.182 364.685 377.373 362.062C375.608 359.438 374.727 356.317 374.727 352.698C374.727 346.682 377.26 341.592 382.326 337.43C387.438 333.269 393.952 331.188 401.868 331.188C410.192 331.188 416.932 333.336 422.089 337.634C427.291 341.931 429.892 347.428 429.892 354.122H417.272C417.272 350.685 415.801 347.722 412.861 345.234C409.965 342.746 406.301 341.502 401.868 341.502C397.3 341.502 393.726 342.497 391.147 344.487C388.569 346.478 387.279 349.079 387.279 352.29C387.279 355.322 388.479 357.606 390.876 359.144C393.273 360.681 397.594 362.152 403.836 363.555C410.124 364.957 415.214 366.63 419.104 368.576C422.994 370.521 425.867 372.874 427.721 375.633C429.621 378.346 430.571 381.671 430.571 385.607C430.571 392.167 427.948 397.437 422.699 401.417C417.452 405.353 410.644 407.321 402.276 407.321C396.395 407.321 391.192 406.28 386.669 404.2C382.145 402.119 378.594 399.224 376.016 395.515C373.482 391.759 372.216 387.711 372.216 383.368H384.77C384.995 387.575 386.669 390.923 389.79 393.41C392.957 395.854 397.119 397.075 402.276 397.075C407.025 397.075 410.826 396.125 413.675 394.225C416.57 392.28 418.017 389.701 418.017 386.49ZM489.672 386.49C489.672 383.097 488.383 380.473 485.805 378.619C483.272 376.718 478.815 375.09 472.438 373.733C466.105 372.376 461.06 370.747 457.306 368.847C453.596 366.948 450.837 364.685 449.028 362.062C447.263 359.438 446.382 356.317 446.382 352.698C446.382 346.682 448.914 341.592 453.981 337.43C459.092 333.269 465.607 331.188 473.523 331.188C481.847 331.188 488.587 333.336 493.744 337.634C498.946 341.931 501.547 347.428 501.547 354.122H488.926C488.926 350.685 487.456 347.722 484.515 345.234C481.62 342.746 477.956 341.502 473.523 341.502C468.954 341.502 465.381 342.497 462.802 344.487C460.224 346.478 458.934 349.079 458.934 352.29C458.934 355.322 460.134 357.606 462.531 359.144C464.928 360.681 469.249 362.152 475.491 363.555C481.779 364.957 486.868 366.63 490.758 368.576C494.648 370.521 497.521 372.874 499.375 375.633C501.276 378.346 502.225 381.671 502.225 385.607C502.225 392.167 499.602 397.437 494.354 401.417C489.107 405.353 482.299 407.321 473.931 407.321C468.05 407.321 462.847 406.28 458.324 404.2C453.8 402.119 450.248 399.224 447.671 395.515C445.137 391.759 443.871 387.711 443.871 383.368H456.424C456.65 387.575 458.324 390.923 461.444 393.41C464.612 395.854 468.774 397.075 473.931 397.075C478.68 397.075 482.481 396.125 485.329 394.225C488.225 392.28 489.672 389.701 489.672 386.49Z" fill="#212121"/>
<path d="M1243.05 359.755C1243.05 369.435 1241.42 377.895 1238.16 385.133C1234.91 392.326 1230.29 397.822 1224.33 401.621C1218.35 405.421 1211.38 407.321 1203.42 407.321C1195.64 407.321 1188.74 405.421 1182.73 401.621C1176.71 397.777 1172.03 392.326 1168.68 385.268C1165.38 378.166 1163.68 369.955 1163.59 360.637V353.512C1163.59 344.013 1165.24 335.621 1168.54 328.338C1171.84 321.055 1176.51 315.491 1182.52 311.646C1188.59 307.755 1195.5 305.811 1203.28 305.811C1211.21 305.811 1218.17 307.733 1224.19 311.578C1230.24 315.377 1234.91 320.919 1238.16 328.203C1241.42 335.441 1243.05 343.877 1243.05 353.512V359.755ZM1230.09 353.377C1230.09 341.661 1227.73 332.681 1223.03 326.438C1218.33 320.15 1211.75 317.007 1203.28 317.007C1195.05 317.007 1188.57 320.15 1183.81 326.438C1179.1 332.681 1176.68 341.367 1176.56 352.494V359.755C1176.56 371.109 1178.93 380.043 1183.68 386.557C1188.47 393.026 1195.05 396.261 1203.42 396.261C1211.83 396.261 1218.35 393.207 1222.96 387.1C1227.58 380.948 1229.95 372.15 1230.09 360.705V353.377ZM1296.11 343.809C1294.21 343.493 1292.15 343.334 1289.94 343.334C1281.71 343.334 1276.11 346.839 1273.17 353.852V405.964H1260.62V332.546H1272.84L1273.05 341.027C1277.16 334.468 1282.99 331.188 1290.54 331.188C1292.99 331.188 1294.84 331.505 1296.11 332.138V343.809ZM1303.31 368.643C1303.31 357.38 1305.97 348.332 1311.31 341.502C1316.65 334.625 1323.64 331.188 1332.28 331.188C1340.87 331.188 1347.68 334.129 1352.7 340.009V301.739H1365.25V405.964H1353.72L1353.11 398.093C1348.09 404.245 1341.1 407.321 1332.14 407.321C1323.64 407.321 1316.69 403.838 1311.31 396.871C1305.97 389.905 1303.31 380.812 1303.31 369.594V368.643ZM1315.86 370.069C1315.86 378.392 1317.57 384.906 1321.01 389.611C1324.45 394.315 1329.2 396.668 1335.27 396.668C1343.22 396.668 1349.04 393.095 1352.7 385.947V352.223C1348.94 345.302 1343.18 341.841 1335.4 341.841C1329.25 341.841 1324.45 344.216 1321.01 348.966C1317.57 353.716 1315.86 360.75 1315.86 370.069ZM1415.27 407.321C1405.31 407.321 1397.21 404.064 1390.97 397.55C1384.73 390.99 1381.61 382.238 1381.61 371.291V368.983C1381.61 361.7 1382.99 355.209 1385.75 349.509C1388.55 343.764 1392.44 339.286 1397.42 336.073C1402.43 332.817 1407.87 331.188 1413.7 331.188C1423.25 331.188 1430.67 334.332 1435.96 340.62C1441.25 346.908 1443.89 355.909 1443.89 367.627V372.851H1394.17C1394.34 380.088 1396.45 385.947 1400.47 390.425C1404.54 394.858 1409.7 397.075 1415.94 397.075C1420.37 397.075 1424.13 396.17 1427.21 394.36C1430.29 392.551 1432.97 390.154 1435.28 387.169L1442.94 393.14C1436.79 402.594 1427.56 407.321 1415.27 407.321ZM1413.7 341.502C1408.64 341.502 1404.38 343.357 1400.94 347.066C1397.51 350.731 1395.38 355.887 1394.57 362.537H1431.34V361.587C1430.98 355.209 1429.27 350.278 1426.19 346.794C1423.12 343.266 1418.95 341.502 1413.7 341.502ZM1493.98 343.809C1492.08 343.493 1490.02 343.334 1487.8 343.334C1479.57 343.334 1473.98 346.839 1471.04 353.852V405.964H1458.48V332.546H1470.7L1470.9 341.027C1475.02 334.468 1480.86 331.188 1488.41 331.188C1490.85 331.188 1492.71 331.505 1493.98 332.138V343.809ZM1571.13 361.927C1559.95 358.714 1551.81 354.779 1546.69 350.119C1541.63 345.415 1539.1 339.625 1539.1 332.748C1539.1 324.968 1542.2 318.545 1548.4 313.478C1554.64 308.367 1562.73 305.811 1572.69 305.811C1579.47 305.811 1585.51 307.122 1590.8 309.746C1596.14 312.37 1600.25 315.989 1603.15 320.603C1606.09 325.216 1607.56 330.261 1607.56 335.734H1594.46C1594.46 329.763 1592.56 325.081 1588.77 321.689C1584.97 318.251 1579.61 316.531 1572.69 316.531C1566.26 316.531 1561.24 317.956 1557.63 320.806C1554.05 323.611 1552.26 327.524 1552.26 332.546C1552.26 336.571 1553.95 339.986 1557.35 342.791C1560.79 345.551 1566.6 348.084 1574.79 350.391C1583.02 352.698 1589.45 355.254 1594.06 358.059C1598.73 360.818 1602.15 364.053 1604.38 367.762C1606.63 371.471 1607.77 375.836 1607.77 380.857C1607.77 388.864 1604.64 395.288 1598.4 400.129C1592.16 404.924 1583.81 407.321 1573.36 407.321C1566.58 407.321 1560.24 406.032 1554.37 403.453C1548.49 400.829 1543.94 397.255 1540.73 392.732C1537.56 388.209 1535.98 383.074 1535.98 377.329H1549.07C1549.07 383.301 1551.27 388.028 1555.66 391.511C1560.09 394.949 1565.99 396.668 1573.36 396.668C1580.24 396.668 1585.51 395.266 1589.17 392.461C1592.84 389.656 1594.67 385.834 1594.67 380.994C1594.67 376.153 1592.98 372.421 1589.59 369.798C1586.2 367.129 1580.03 364.504 1571.13 361.927ZM1667.88 398.703C1663 404.448 1655.83 407.321 1646.38 407.321C1638.55 407.321 1632.58 405.06 1628.46 400.535C1624.39 395.967 1622.34 389.227 1622.29 380.315V332.546H1634.85V379.976C1634.85 391.104 1639.36 396.668 1648.42 396.668C1658.01 396.668 1664.39 393.095 1667.55 385.947V332.546H1680.1V405.964H1668.16L1667.88 398.703ZM1711.04 332.546L1711.38 340.688C1716.77 334.354 1724.03 331.188 1733.16 331.188C1743.44 331.188 1750.42 335.123 1754.14 342.995C1756.57 339.466 1759.74 336.616 1763.63 334.445C1767.57 332.273 1772.2 331.188 1777.54 331.188C1793.65 331.188 1801.84 339.715 1802.1 356.77V405.964H1789.55V357.516C1789.55 352.268 1788.36 348.355 1785.96 345.776C1783.56 343.153 1779.53 341.841 1773.88 341.841C1769.21 341.841 1765.35 343.244 1762.28 346.049C1759.2 348.808 1757.41 352.539 1756.92 357.245V405.964H1744.29V357.855C1744.29 347.179 1739.07 341.841 1728.61 341.841C1720.38 341.841 1714.75 345.347 1711.72 352.359V405.964H1699.16V332.546H1711.04ZM1832.91 332.546L1833.25 340.688C1838.63 334.354 1845.89 331.188 1855.03 331.188C1865.3 331.188 1872.29 335.123 1876 342.995C1878.44 339.466 1881.6 336.616 1885.49 334.445C1889.43 332.273 1894.08 331.188 1899.4 331.188C1915.51 331.188 1923.7 339.715 1923.98 356.77V405.964H1911.42V357.516C1911.42 352.268 1910.22 348.355 1907.82 345.776C1905.42 343.153 1901.39 341.841 1895.74 341.841C1891.09 341.841 1887.22 343.244 1884.14 346.049C1881.06 348.808 1879.28 352.539 1878.78 357.245V405.964H1866.16V357.855C1866.16 347.179 1860.93 341.841 1850.49 341.841C1842.25 341.841 1836.62 345.347 1833.59 352.359V405.964H1821.04V332.546H1832.91ZM1988.3 405.964C1987.58 404.516 1986.99 401.937 1986.53 398.228C1980.7 404.291 1973.73 407.321 1965.63 407.321C1958.39 407.321 1952.45 405.285 1947.79 401.214C1943.18 397.098 1940.87 391.896 1940.87 385.608C1940.87 377.962 1943.77 372.036 1949.56 367.829C1955.38 363.577 1963.57 361.451 1974.12 361.451H1986.33V355.684C1986.33 351.296 1985.02 347.812 1982.39 345.234C1979.77 342.61 1975.9 341.298 1970.8 341.298C1966.32 341.298 1962.56 342.43 1959.53 344.691C1956.49 346.953 1954.98 349.689 1954.98 352.902H1942.36C1942.36 349.238 1943.65 345.709 1946.22 342.316C1948.85 338.878 1952.38 336.165 1956.81 334.174C1961.29 332.183 1966.2 331.188 1971.54 331.188C1979.99 331.188 1986.63 333.315 1991.42 337.567C1996.22 341.773 1998.71 347.586 1998.88 355.005V388.797C1998.88 395.537 1999.75 400.898 2001.46 404.878V405.964H1988.3ZM1967.46 396.396C1971.4 396.396 1975.14 395.378 1978.66 393.344C1982.19 391.308 1984.75 388.662 1986.33 385.404V370.34H1976.49C1961.12 370.34 1953.43 374.841 1953.43 383.843C1953.43 387.779 1954.73 390.855 1957.35 393.071C1959.98 395.288 1963.35 396.396 1967.46 396.396ZM2054.05 343.809C2052.15 343.493 2050.09 343.334 2047.88 343.334C2039.64 343.334 2034.05 346.839 2031.11 353.852V405.964H2018.57V332.546H2030.77L2030.98 341.027C2035.09 334.468 2040.93 331.188 2048.48 331.188C2050.92 331.188 2052.79 331.505 2054.05 332.138V343.809ZM2090.9 387.575L2107.99 332.546H2121.43L2091.91 417.296C2087.34 429.51 2080.08 435.616 2070.13 435.616L2067.76 435.413L2063.07 434.531V424.353L2066.46 424.624C2070.71 424.624 2074.03 423.764 2076.38 422.046C2078.77 420.326 2080.74 417.183 2082.27 412.614L2085.06 405.15L2058.87 332.546H2072.58L2090.9 387.575Z" fill="#666666"/>
<path d="M2785.29 367.287V405.963H2772.27V307.167H2808.71C2819.51 307.167 2827.98 309.926 2834.08 315.445C2840.23 320.964 2843.31 328.269 2843.31 337.362C2843.31 346.952 2840.3 354.349 2834.29 359.551C2828.32 364.708 2819.75 367.287 2808.57 367.287H2785.29ZM2785.29 356.632H2808.71C2815.67 356.632 2821.01 355.004 2824.73 351.748C2828.43 348.445 2830.28 343.695 2830.28 337.498C2830.28 331.617 2828.43 326.912 2824.73 323.383C2821.01 319.856 2815.92 318.023 2809.45 317.887H2785.29V356.632ZM2902.48 405.963C2901.76 404.516 2901.17 401.937 2900.72 398.227C2894.88 404.29 2887.92 407.321 2879.81 407.321C2872.58 407.321 2866.64 405.285 2861.97 401.213C2857.36 397.097 2855.05 391.895 2855.05 385.607C2855.05 377.961 2857.95 372.036 2863.74 367.829C2869.58 363.576 2877.76 361.45 2888.3 361.45H2900.51V355.683C2900.51 351.295 2899.2 347.812 2896.58 345.234C2893.95 342.61 2890.09 341.297 2884.98 341.297C2880.5 341.297 2876.75 342.429 2873.71 344.691C2870.68 346.952 2869.16 349.689 2869.16 352.901H2856.55C2856.55 349.237 2857.83 345.708 2860.42 342.315C2863.03 338.877 2866.57 336.164 2871 334.173C2875.47 332.182 2880.38 331.188 2885.72 331.188C2894.19 331.188 2900.81 333.314 2905.6 337.566C2910.4 341.772 2912.89 347.586 2913.06 355.004V388.796C2913.06 395.536 2913.93 400.897 2915.64 404.877V405.963H2902.48ZM2881.66 396.395C2885.58 396.395 2889.32 395.377 2892.84 393.343C2896.37 391.307 2898.93 388.661 2900.51 385.403V370.339H2890.68C2875.3 370.339 2867.61 374.841 2867.61 383.842C2867.61 387.778 2868.92 390.854 2871.53 393.071C2874.16 395.287 2877.53 396.395 2881.66 396.395ZM2955.68 387.575L2972.78 332.545H2986.22L2956.7 417.295C2952.12 429.509 2944.87 435.615 2934.91 435.615L2932.54 435.413L2927.86 434.53V424.352L2931.26 424.623C2935.51 424.623 2938.81 423.764 2941.16 422.045C2943.55 420.325 2945.52 417.183 2947.06 412.613L2949.84 405.149L2923.65 332.545H2937.36L2955.68 387.575ZM3009.28 332.545L3009.62 340.687C3015.01 334.354 3022.27 331.188 3031.4 331.188C3041.68 331.188 3048.66 335.123 3052.38 342.994C3054.82 339.465 3057.98 336.615 3061.87 334.444C3065.81 332.273 3070.44 331.188 3075.78 331.188C3091.89 331.188 3100.08 339.714 3100.34 356.769V405.963H3087.79V357.515C3087.79 352.268 3086.6 348.355 3084.2 345.776C3081.8 343.153 3077.77 341.841 3072.12 341.841C3067.45 341.841 3063.59 343.243 3060.52 346.048C3057.44 348.807 3055.65 352.539 3055.16 357.244V405.963H3042.53V357.854C3042.53 347.178 3037.31 341.841 3026.86 341.841C3018.63 341.841 3012.99 345.346 3009.97 352.358V405.963H2997.41V332.545H3009.28ZM3149.81 407.321C3139.86 407.321 3131.76 404.063 3125.52 397.549C3119.28 390.99 3116.16 382.237 3116.16 371.29V368.982C3116.16 361.699 3117.54 355.208 3120.3 349.508C3123.1 343.763 3126.99 339.285 3131.97 336.072C3136.98 332.816 3142.42 331.188 3148.25 331.188C3157.79 331.188 3165.22 334.332 3170.51 340.619C3175.8 346.907 3178.44 355.909 3178.44 367.626V372.85H3128.72C3128.89 380.088 3131 385.946 3135.02 390.424C3139.09 394.858 3144.24 397.074 3150.49 397.074C3154.92 397.074 3158.67 396.17 3161.75 394.36C3164.83 392.551 3167.52 390.153 3169.83 387.168L3177.49 393.139C3171.34 402.593 3162.11 407.321 3149.81 407.321ZM3148.25 341.501C3143.19 341.501 3138.93 343.356 3135.49 347.066C3132.06 350.73 3129.93 355.887 3129.12 362.536H3165.89V361.587C3165.53 355.208 3163.82 350.277 3160.74 346.794C3157.67 343.265 3153.5 341.501 3148.25 341.501ZM3204.92 332.545L3205.32 341.772C3210.93 334.716 3218.26 331.188 3227.3 331.188C3242.82 331.188 3250.65 339.94 3250.79 357.447V405.963H3238.23V357.379C3238.19 352.087 3236.96 348.174 3234.56 345.64C3232.21 343.108 3228.53 341.841 3223.5 341.841C3219.43 341.841 3215.86 342.926 3212.78 345.097C3209.71 347.268 3207.31 350.118 3205.59 353.647V405.963H3193.03V332.545H3204.92ZM3286.74 314.766V332.545H3300.45V342.247H3286.74V387.778C3286.74 390.719 3287.36 392.935 3288.57 394.428C3289.8 395.875 3291.87 396.599 3294.81 396.599C3296.26 396.599 3298.25 396.328 3300.79 395.785V405.963C3297.49 406.868 3294.27 407.321 3291.16 407.321C3285.54 407.321 3281.31 405.624 3278.46 402.231C3275.61 398.839 3274.19 394.021 3274.19 387.778V342.247H3260.83V332.545H3274.19V314.766H3286.74Z" fill="#666666"/>
<path fill-rule="evenodd" clip-rule="evenodd" d="M462.289 110.66H1435.06V122.24H462.289V110.66Z" fill="#DBDBDB"/>
</svg>
