<svg width="280" height="auto" viewBox="0 0 3301 436" fill="none" xmlns="http://www.w3.org/2000/svg">
<path d="M3033.32 225.991C3094.09 225.991 3143.34 176.733 3143.34 115.971C3143.34 55.2082 3094.09 5.95044 3033.32 5.95044C2972.56 5.95044 2923.3 55.2082 2923.3 115.971C2923.3 176.733 2972.56 225.991 3033.32 225.991Z" fill="white"/>
<path d="M3033.32 225.991C3094.09 225.991 3143.34 176.733 3143.34 115.971C3143.34 55.2082 3094.09 5.95044 3033.32 5.95044C2972.56 5.95044 2923.3 55.2082 2923.3 115.971C2923.3 176.733 2972.56 225.991 3033.32 225.991Z" stroke="#2874F0" stroke-width="11.5811"/>
<path d="M3019.25 105.362H3029.29C3034.36 105.317 3038.37 104.005 3041.3 101.426C3044.29 98.8476 3045.78 95.115 3045.78 90.2289C3045.78 85.5247 3044.54 81.8824 3042.05 79.3045C3039.61 76.6802 3035.86 75.3681 3030.78 75.3681C3026.35 75.3681 3022.71 76.6582 3019.86 79.2362C3017.01 81.7701 3015.59 85.095 3015.59 89.2121H2999.1C2999.1 84.1454 3000.43 79.5303 3003.1 75.3681C3005.81 71.207 3009.57 67.9724 3014.36 65.6643C3019.2 63.3122 3024.61 62.1367 3030.59 62.1367C3040.44 62.1367 3048.18 64.6243 3053.8 69.6007C3059.45 74.5319 3062.27 81.4076 3062.27 90.2289C3062.27 94.6633 3060.85 98.8475 3058 102.783C3055.2 106.674 3051.55 109.614 3047.08 111.604C3052.5 113.459 3056.62 116.378 3059.42 120.358C3062.27 124.34 3063.7 129.089 3063.7 134.609C3063.7 143.475 3060.64 150.533 3054.54 155.78C3048.48 161.027 3040.49 163.652 3030.59 163.652C3021.08 163.652 3013.3 161.118 3007.24 156.051C3001.18 150.984 2998.15 144.244 2998.15 135.829H3014.64C3014.64 140.172 3016.09 143.701 3018.98 146.416C3021.92 149.13 3025.85 150.488 3030.78 150.488C3035.9 150.488 3039.92 149.13 3042.86 146.416C3045.8 143.701 3047.28 139.766 3047.28 134.609C3047.28 129.407 3045.73 125.403 3042.67 122.598C3039.59 119.793 3035.01 118.391 3028.95 118.391H3019.25V105.362Z" fill="#2874F2"/>
<path d="M1643.59 225.991C1704.36 225.991 1753.61 176.733 1753.61 115.971C1753.61 55.2082 1704.36 5.95044 1643.59 5.95044C1582.83 5.95044 1533.57 55.2082 1533.57 115.971C1533.57 176.733 1582.83 225.991 1643.59 225.991Z" fill="#2874F0" stroke="#2874F0" stroke-width="11.5811"/>
<path d="M1676.88 162.294H1610.45V150.962L1643.36 115.066C1648.12 109.772 1651.49 105.362 1653.48 101.833C1655.5 98.2592 1656.52 94.6853 1656.52 91.1114C1656.52 86.4072 1655.19 82.6063 1652.52 79.711C1649.9 76.8157 1646.34 75.3681 1641.87 75.3681C1636.53 75.3681 1632.39 76.9976 1629.45 80.2542C1626.51 83.5119 1625.03 87.9671 1625.03 93.6222H1608.55C1608.55 87.6058 1609.91 82.1998 1612.62 77.404C1615.38 72.5643 1619.29 68.8086 1624.36 66.1403C1629.47 63.4709 1635.35 62.1367 1642 62.1367C1651.59 62.1367 1659.15 64.556 1664.66 69.3969C1670.24 74.1926 1673.01 80.8425 1673.01 89.3476C1673.01 94.2788 1671.61 99.4579 1668.81 104.887C1666.04 110.27 1661.5 116.4 1655.17 123.277L1631.01 149.13H1676.88V162.294Z" fill="white"/>
<path d="M253.864 225.991C314.626 225.991 363.884 176.733 363.884 115.971C363.884 55.2082 314.626 5.95044 253.864 5.95044C193.102 5.95044 143.844 55.2082 143.844 115.971C143.844 176.733 193.102 225.991 253.864 225.991Z" fill="#2874F0"/>
<path d="M64.8579 379.711H23.4649L14.1676 405.497H0.732422L38.4612 306.697H49.8616L87.6576 405.497H74.2907L64.8579 379.711ZM27.4001 368.99H60.9899L44.1614 322.778L27.4001 368.99ZM95.9369 368.175C95.9369 356.911 98.6063 347.863 103.944 341.033C109.282 334.156 116.272 330.718 124.912 330.718C133.507 330.718 140.316 333.659 145.337 339.54V301.268H157.891V405.497H146.355L145.745 397.626C140.723 403.779 133.734 406.855 124.776 406.855C116.272 406.855 109.327 403.371 103.944 396.404C98.6063 389.438 95.9369 380.345 95.9369 369.126V368.175ZM108.491 369.601C108.491 377.924 110.209 384.438 113.648 389.144C117.086 393.848 121.836 396.201 127.898 396.201C135.86 396.201 141.673 392.627 145.337 385.48V351.754C141.583 344.832 135.815 341.372 128.034 341.372C121.881 341.372 117.086 343.747 113.648 348.497C110.209 353.247 108.491 360.281 108.491 369.601ZM174.38 368.175C174.38 356.911 177.05 347.863 182.387 341.033C187.726 334.156 194.715 330.718 203.356 330.718C211.951 330.718 218.76 333.659 223.781 339.54V301.268H236.334V405.497H224.798L224.188 397.626C219.166 403.779 212.177 406.855 203.22 406.855C194.715 406.855 187.771 403.371 182.387 396.404C177.05 389.438 174.38 380.345 174.38 369.126V368.175ZM186.934 369.601C186.934 377.924 188.654 384.438 192.091 389.144C195.529 393.848 200.28 396.201 206.342 396.201C214.304 396.201 220.116 392.627 223.781 385.48V351.754C220.026 344.832 214.258 341.372 206.477 341.372C200.325 341.372 195.529 343.747 192.091 348.497C188.654 353.247 186.934 360.281 186.934 369.601ZM291.367 343.34C289.467 343.023 287.409 342.865 285.192 342.865C276.959 342.865 271.372 346.37 268.431 353.383V405.497H255.877V332.076H268.092L268.296 340.558C272.413 333.998 278.248 330.718 285.803 330.718C288.246 330.718 290.1 331.035 291.367 331.668V343.34ZM332.082 406.855C322.129 406.855 314.032 403.597 307.789 397.083C301.546 390.523 298.425 381.77 298.425 370.823V368.514C298.425 361.231 299.804 354.74 302.564 349.04C305.369 343.294 309.259 338.816 314.235 335.603C319.257 332.347 324.685 330.718 330.522 330.718C340.067 330.718 347.486 333.863 352.778 340.15C358.072 346.439 360.718 355.441 360.718 367.158V372.383H310.979C311.159 379.621 313.263 385.48 317.289 389.958C321.36 394.391 326.517 396.608 332.76 396.608C337.194 396.608 340.948 395.703 344.025 393.893C347.101 392.084 349.793 389.687 352.1 386.701L359.768 392.673C353.616 402.127 344.387 406.855 332.082 406.855ZM330.522 341.033C325.455 341.033 321.203 342.888 317.764 346.597C314.326 350.262 312.199 355.419 311.385 362.068H348.164V361.119C347.802 354.74 346.083 349.809 343.007 346.325C339.931 342.796 335.769 341.033 330.522 341.033ZM418.057 386.023C418.057 382.629 416.768 380.005 414.19 378.151C411.657 376.251 407.2 374.622 400.822 373.265C394.489 371.908 389.444 370.279 385.689 368.379C381.98 366.48 379.22 364.217 377.411 361.594C375.646 358.969 374.765 355.848 374.765 352.229C374.765 346.213 377.298 341.123 382.365 336.961C387.476 332.8 393.991 330.718 401.908 330.718C410.232 330.718 416.972 332.867 422.129 337.165C427.332 341.462 429.933 346.959 429.933 353.654H417.312C417.312 350.216 415.841 347.253 412.9 344.765C410.005 342.276 406.341 341.033 401.908 341.033C397.339 341.033 393.765 342.027 391.186 344.018C388.608 346.009 387.318 348.61 387.318 351.822C387.318 354.853 388.518 357.137 390.915 358.675C393.312 360.213 397.633 361.684 403.875 363.086C410.164 364.489 415.254 366.162 419.144 368.108C423.034 370.054 425.907 372.406 427.761 375.165C429.662 377.879 430.611 381.204 430.611 385.14C430.611 391.7 427.988 396.97 422.74 400.951C417.492 404.887 410.684 406.855 402.315 406.855C396.434 406.855 391.231 405.814 386.707 403.734C382.184 401.653 378.632 398.757 376.054 395.048C373.52 391.292 372.254 387.243 372.254 382.9H384.808C385.034 387.108 386.707 390.456 389.829 392.944C392.996 395.387 397.158 396.608 402.315 396.608C407.065 396.608 410.866 395.658 413.714 393.758C416.61 391.813 418.057 389.234 418.057 386.023ZM489.715 386.023C489.715 382.629 488.426 380.005 485.848 378.151C483.314 376.251 478.858 374.622 472.48 373.265C466.147 371.908 461.102 370.279 457.347 368.379C453.638 366.48 450.878 364.217 449.069 361.594C447.304 358.969 446.423 355.848 446.423 352.229C446.423 346.213 448.956 341.123 454.022 336.961C459.134 332.8 465.649 330.718 473.565 330.718C481.89 330.718 488.63 332.867 493.787 337.165C498.989 341.462 501.59 346.959 501.59 353.654H488.969C488.969 350.216 487.499 347.253 484.558 344.765C481.663 342.276 477.999 341.033 473.565 341.033C468.997 341.033 465.423 342.027 462.844 344.018C460.266 346.009 458.976 348.61 458.976 351.822C458.976 354.853 460.175 357.137 462.573 358.675C464.97 360.213 469.291 361.684 475.533 363.086C481.822 364.489 486.912 366.162 490.802 368.108C494.692 370.054 497.565 372.406 499.419 375.165C501.319 377.879 502.269 381.204 502.269 385.14C502.269 391.7 499.646 396.97 494.397 400.951C489.15 404.887 482.342 406.855 473.973 406.855C468.092 406.855 462.889 405.814 458.365 403.734C453.842 401.653 450.29 398.757 447.712 395.048C445.178 391.292 443.912 387.243 443.912 382.9H456.466C456.692 387.108 458.365 390.456 461.486 392.944C464.654 395.387 468.816 396.608 473.973 396.608C478.723 396.608 482.523 395.658 485.372 393.758C488.268 391.813 489.715 389.234 489.715 386.023Z" fill="#212121"/>
<path d="M1243.13 359.287C1243.13 368.967 1241.49 377.427 1238.24 384.665C1234.98 391.858 1230.36 397.355 1224.4 401.155C1218.42 404.954 1211.45 406.855 1203.49 406.855C1195.71 406.855 1188.81 404.954 1182.8 401.155C1176.78 397.31 1172.1 391.858 1168.75 384.801C1165.45 377.698 1163.75 369.487 1163.66 360.168V353.043C1163.66 343.543 1165.31 335.152 1168.61 327.868C1171.91 320.585 1176.58 315.02 1182.59 311.175C1188.66 307.284 1195.57 305.34 1203.36 305.34C1211.28 305.34 1218.24 307.262 1224.26 311.107C1230.32 314.907 1234.98 320.448 1238.24 327.733C1241.49 334.971 1243.13 343.408 1243.13 353.043V359.287ZM1230.17 352.908C1230.17 341.191 1227.8 332.211 1223.1 325.968C1218.4 319.679 1211.82 316.536 1203.36 316.536C1195.12 316.536 1188.64 319.679 1183.88 325.968C1179.17 332.211 1176.75 340.897 1176.63 352.025V359.287C1176.63 370.641 1179 379.576 1183.75 386.09C1188.54 392.559 1195.12 395.794 1203.49 395.794C1211.9 395.794 1218.42 392.74 1223.03 386.633C1227.65 380.48 1230.03 371.682 1230.17 360.236V352.908ZM1296.19 343.34C1294.29 343.023 1292.23 342.865 1290.02 342.865C1281.78 342.865 1276.19 346.37 1273.25 353.383V405.497H1260.69V332.076H1272.91L1273.12 340.558C1277.23 333.998 1283.07 330.718 1290.62 330.718C1293.06 330.718 1294.92 331.035 1296.19 331.668V343.34ZM1303.38 368.175C1303.38 356.911 1306.05 347.863 1311.38 341.033C1316.72 334.156 1323.72 330.718 1332.36 330.718C1340.95 330.718 1347.76 333.659 1352.78 339.54V301.268H1365.33V405.497H1353.79L1353.19 397.626C1348.17 403.779 1341.18 406.855 1332.22 406.855C1323.72 406.855 1316.77 403.371 1311.38 396.404C1306.05 389.438 1303.38 380.345 1303.38 369.126V368.175ZM1315.94 369.601C1315.94 377.924 1317.65 384.438 1321.09 389.144C1324.53 393.848 1329.28 396.201 1335.35 396.201C1343.3 396.201 1349.12 392.627 1352.78 385.48V351.754C1349.02 344.832 1343.26 341.372 1335.47 341.372C1329.32 341.372 1324.53 343.747 1321.09 348.497C1317.65 353.247 1315.94 360.281 1315.94 369.601ZM1415.35 406.855C1405.39 406.855 1397.29 403.597 1391.05 397.083C1384.81 390.523 1381.69 381.77 1381.69 370.823V368.514C1381.69 361.231 1383.07 354.74 1385.83 349.04C1388.63 343.294 1392.52 338.816 1397.5 335.603C1402.52 332.347 1407.95 330.718 1413.78 330.718C1423.33 330.718 1430.75 333.863 1436.04 340.15C1441.34 346.439 1443.98 355.441 1443.98 367.158V372.383H1394.25C1394.42 379.621 1396.53 385.48 1400.55 389.958C1404.62 394.391 1409.78 396.608 1416.02 396.608C1420.45 396.608 1424.21 395.703 1427.29 393.893C1430.37 392.084 1433.06 389.687 1435.36 386.701L1443.03 392.673C1436.88 402.127 1427.65 406.855 1415.35 406.855ZM1413.78 341.033C1408.72 341.033 1404.46 342.888 1401.02 346.597C1397.59 350.262 1395.46 355.419 1394.65 362.068H1431.42V361.119C1431.06 354.74 1429.35 349.809 1426.27 346.325C1423.2 342.796 1419.03 341.033 1413.78 341.033ZM1494.06 343.34C1492.16 343.023 1490.1 342.865 1487.88 342.865C1479.66 342.865 1474.06 346.37 1471.12 353.383V405.497H1458.57V332.076H1470.79L1470.98 340.558C1475.11 333.998 1480.94 330.718 1488.49 330.718C1490.94 330.718 1492.79 331.035 1494.06 331.668V343.34ZM1571.22 361.458C1560.04 358.246 1551.9 354.31 1546.78 349.65C1541.72 344.946 1539.18 339.155 1539.18 332.278C1539.18 324.498 1542.29 318.074 1548.48 313.008C1554.73 307.896 1562.82 305.34 1572.78 305.34C1579.56 305.34 1585.6 306.651 1590.89 309.275C1596.23 311.899 1600.34 315.518 1603.24 320.132C1606.18 324.746 1607.65 329.791 1607.65 335.264H1594.55C1594.55 329.293 1592.65 324.611 1588.86 321.219C1585.06 317.78 1579.69 316.06 1572.78 316.06C1566.35 316.06 1561.33 317.486 1557.71 320.336C1554.14 323.141 1552.35 327.054 1552.35 332.076C1552.35 336.101 1554.04 339.517 1557.44 342.322C1560.88 345.081 1566.69 347.615 1574.88 349.922C1583.11 352.229 1589.54 354.785 1594.15 357.59C1598.81 360.35 1602.24 363.584 1604.47 367.294C1606.72 371.003 1607.86 375.368 1607.86 380.39C1607.86 388.397 1604.73 394.821 1598.49 399.662C1592.25 404.457 1583.9 406.855 1573.45 406.855C1566.67 406.855 1560.33 405.566 1554.46 402.987C1548.58 400.362 1544.02 396.788 1540.82 392.265C1537.64 387.741 1536.07 382.606 1536.07 376.861H1549.16C1549.16 382.833 1551.36 387.561 1555.74 391.044C1560.18 394.482 1566.08 396.201 1573.45 396.201C1580.33 396.201 1585.6 394.799 1589.26 391.994C1592.93 389.189 1594.76 385.366 1594.76 380.526C1594.76 375.685 1593.07 371.953 1589.68 369.33C1586.28 366.66 1580.12 364.036 1571.22 361.458ZM1667.98 398.236C1663.09 403.981 1655.92 406.855 1646.47 406.855C1638.64 406.855 1632.67 404.593 1628.55 400.068C1624.48 395.5 1622.43 388.759 1622.38 379.848V332.076H1634.94V379.508C1634.94 390.637 1639.45 396.201 1648.51 396.201C1658.1 396.201 1664.48 392.627 1667.64 385.48V332.076H1680.19V405.497H1668.25L1667.98 398.236ZM1711.14 332.076L1711.48 340.218C1716.86 333.885 1724.12 330.718 1733.26 330.718C1743.53 330.718 1750.52 334.654 1754.23 342.525C1756.66 338.997 1759.84 336.147 1763.73 333.975C1767.67 331.804 1772.3 330.718 1777.64 330.718C1793.75 330.718 1801.94 339.246 1802.2 356.301V405.497H1789.65V357.047C1789.65 351.799 1788.45 347.886 1786.06 345.307C1783.66 342.684 1779.63 341.372 1773.98 341.372C1769.31 341.372 1765.44 342.774 1762.37 345.579C1759.29 348.339 1757.51 352.07 1757.01 356.776V405.497H1744.39V357.386C1744.39 346.71 1739.17 341.372 1728.71 341.372C1720.47 341.372 1714.85 344.878 1711.81 351.89V405.497H1699.26V332.076H1711.14ZM1833.01 332.076L1833.35 340.218C1838.73 333.885 1845.99 330.718 1855.13 330.718C1865.4 330.718 1872.39 334.654 1876.1 342.525C1878.54 338.997 1881.71 336.147 1885.6 333.975C1889.53 331.804 1894.18 330.718 1899.51 330.718C1915.62 330.718 1923.8 339.246 1924.08 356.301V405.497H1911.53V357.047C1911.53 351.799 1910.32 347.886 1907.93 345.307C1905.53 342.684 1901.5 341.372 1895.85 341.372C1891.19 341.372 1887.32 342.774 1884.24 345.579C1881.16 348.339 1879.38 352.07 1878.88 356.776V405.497H1866.26V357.386C1866.26 346.71 1861.03 341.372 1850.59 341.372C1842.35 341.372 1836.72 344.878 1833.69 351.89V405.497H1821.14V332.076H1833.01ZM1988.4 405.497C1987.68 404.05 1987.09 401.471 1986.64 397.761C1980.8 403.824 1973.83 406.855 1965.74 406.855C1958.5 406.855 1952.56 404.819 1947.89 400.747C1943.28 396.631 1940.98 391.429 1940.98 385.14C1940.98 377.494 1943.87 371.568 1949.66 367.361C1955.49 363.108 1963.68 360.982 1974.23 360.982H1986.43V355.215C1986.43 350.827 1985.12 347.343 1982.5 344.765C1979.88 342.141 1976.01 340.829 1970.9 340.829C1966.42 340.829 1962.67 341.96 1959.63 344.222C1956.6 346.484 1955.08 349.22 1955.08 352.433H1942.46C1942.46 348.769 1943.76 345.24 1946.33 341.847C1948.96 338.408 1952.49 335.695 1956.91 333.704C1961.39 331.713 1966.31 330.718 1971.64 330.718C1980.1 330.718 1986.73 332.845 1991.53 337.097C1996.32 341.304 1998.81 347.117 1998.99 354.536V388.33C1998.99 395.07 1999.86 400.431 2001.57 404.411V405.497H1988.4ZM1967.57 395.929C1971.51 395.929 1975.25 394.911 1978.77 392.876C1982.3 390.84 1984.86 388.194 1986.43 384.936V369.872H1976.6C1961.22 369.872 1953.53 374.373 1953.53 383.375C1953.53 387.312 1954.84 390.388 1957.46 392.604C1960.09 394.821 1963.46 395.929 1967.57 395.929ZM2054.16 343.34C2052.26 343.023 2050.2 342.865 2047.99 342.865C2039.75 342.865 2034.16 346.37 2031.22 353.383V405.497H2018.67V332.076H2030.88L2031.09 340.558C2035.2 333.998 2041.04 330.718 2048.59 330.718C2051.03 330.718 2052.9 331.035 2054.16 331.668V343.34ZM2091.01 387.108L2108.1 332.076H2121.54L2092.02 416.83C2087.45 429.044 2080.19 435.151 2070.25 435.151L2067.87 434.948L2063.18 434.066V423.887L2066.57 424.158C2070.82 424.158 2074.14 423.299 2076.49 421.58C2078.88 419.86 2080.85 416.717 2082.38 412.147L2085.17 404.683L2058.98 332.076H2072.69L2091.01 387.108Z" fill="#666666"/>
<path d="M2785.44 366.818V405.497H2772.41V306.696H2808.85C2819.66 306.696 2828.12 309.455 2834.23 314.974C2840.38 320.494 2843.46 327.799 2843.46 336.893C2843.46 346.483 2840.45 353.88 2834.44 359.082C2828.46 364.239 2819.89 366.818 2808.71 366.818H2785.44ZM2785.44 356.164H2808.85C2815.81 356.164 2821.15 354.535 2824.87 351.279C2828.58 347.976 2830.43 343.225 2830.43 337.028C2830.43 331.147 2828.58 326.442 2824.87 322.913C2821.15 319.386 2816.07 317.552 2809.6 317.417H2785.44V356.164ZM2902.63 405.497C2901.91 404.049 2901.32 401.47 2900.87 397.761C2895.03 403.823 2888.07 406.854 2879.96 406.854C2872.72 406.854 2866.78 404.818 2862.12 400.746C2857.51 396.63 2855.2 391.428 2855.2 385.14C2855.2 377.494 2858.1 371.568 2863.89 367.36C2869.72 363.108 2877.91 360.981 2888.45 360.981H2900.66V355.214C2900.66 350.826 2899.35 347.342 2896.73 344.764C2894.1 342.14 2890.23 340.828 2885.13 340.828C2880.64 340.828 2876.89 341.959 2873.86 344.221C2870.82 346.483 2869.31 349.22 2869.31 352.432H2856.7C2856.7 348.768 2857.98 345.239 2860.56 341.846C2863.18 338.408 2866.71 335.694 2871.15 333.703C2875.62 331.713 2880.53 330.718 2885.87 330.718C2894.33 330.718 2900.96 332.844 2905.75 337.097C2910.55 341.303 2913.04 347.117 2913.21 354.535V388.329C2913.21 395.069 2914.08 400.43 2915.79 404.41V405.497H2902.63ZM2881.8 395.928C2885.73 395.928 2889.47 394.91 2892.99 392.876C2896.52 390.84 2899.08 388.193 2900.66 384.936V369.871H2890.82C2875.45 369.871 2867.76 374.373 2867.76 383.375C2867.76 387.311 2869.06 390.387 2871.68 392.604C2874.31 394.82 2877.68 395.928 2881.8 395.928ZM2955.83 387.107L2972.93 332.075H2986.37L2956.85 416.829C2952.27 429.043 2945.02 435.15 2935.06 435.15L2932.69 434.947L2928.01 434.065V423.886L2931.4 424.157C2935.66 424.157 2938.96 423.298 2941.31 421.579C2943.7 419.86 2945.67 416.716 2947.21 412.147L2949.99 404.683L2923.8 332.075H2937.51L2955.83 387.107ZM3009.44 332.075L3009.77 340.218C3015.16 333.884 3022.42 330.718 3031.56 330.718C3041.83 330.718 3048.81 334.653 3052.53 342.525C3054.97 338.996 3058.14 336.146 3062.03 333.974C3065.97 331.803 3070.6 330.718 3075.94 330.718C3092.05 330.718 3100.23 339.245 3100.5 356.3V405.497H3087.95V357.046C3087.95 351.799 3086.75 347.886 3084.36 345.306C3081.96 342.683 3077.93 341.371 3072.28 341.371C3067.61 341.371 3063.74 342.774 3060.67 345.579C3057.59 348.338 3055.81 352.07 3055.31 356.775V405.497H3042.69V357.385C3042.69 346.709 3037.46 341.371 3027.02 341.371C3018.78 341.371 3013.14 344.877 3010.12 351.889V405.497H2997.57V332.075H3009.44ZM3149.97 406.854C3140.01 406.854 3131.92 403.596 3125.68 397.082C3119.43 390.522 3116.32 381.769 3116.32 370.822V368.514C3116.32 361.23 3117.7 354.739 3120.45 349.039C3123.26 343.294 3127.15 338.815 3132.13 335.603C3137.14 332.346 3142.57 330.718 3148.41 330.718C3157.95 330.718 3165.38 333.862 3170.67 340.149C3175.96 346.438 3178.6 355.44 3178.6 367.158V372.382H3128.87C3129.05 379.62 3131.16 385.479 3135.17 389.957C3139.25 394.39 3144.4 396.607 3150.65 396.607C3155.08 396.607 3158.83 395.703 3161.91 393.892C3164.99 392.084 3167.68 389.686 3169.99 386.701L3177.65 392.672C3171.5 402.127 3162.27 406.854 3149.97 406.854ZM3148.41 341.032C3143.35 341.032 3139.09 342.887 3135.65 346.597C3132.22 350.261 3130.09 355.418 3129.28 362.068H3166.05V361.118C3165.69 354.739 3163.98 349.808 3160.9 346.324C3157.83 342.796 3153.66 341.032 3148.41 341.032ZM3205.08 332.075L3205.48 341.303C3211.09 334.247 3218.42 330.718 3227.46 330.718C3242.98 330.718 3250.81 339.471 3250.95 356.978V405.497H3238.4V356.911C3238.35 351.618 3237.12 347.705 3234.72 345.171C3232.37 342.638 3228.69 341.371 3223.66 341.371C3219.59 341.371 3216.02 342.456 3212.94 344.628C3209.87 346.799 3207.47 349.649 3205.75 353.178V405.497H3193.19V332.075H3205.08ZM3286.91 314.296V332.075H3300.62V341.778H3286.91V387.311C3286.91 390.251 3287.52 392.468 3288.74 393.961C3289.97 395.408 3292.04 396.132 3294.98 396.132C3296.43 396.132 3298.42 395.861 3300.96 395.318V405.497C3297.66 406.401 3294.44 406.854 3291.32 406.854C3285.7 406.854 3281.48 405.157 3278.63 401.764C3275.78 398.372 3274.36 393.554 3274.36 387.311V341.778H3260.99V332.075H3274.36V314.296H3286.91Z" fill="#666666"/>
<path fill-rule="evenodd" clip-rule="evenodd" d="M462.322 110.18H1435.13V121.761H462.322V110.18Z" fill="#DBDBDB"/>
<path fill-rule="evenodd" clip-rule="evenodd" d="M1876 110.18H2848.81V121.761H1876V110.18Z" fill="#DBDBDB"/>
<path fill-rule="evenodd" clip-rule="evenodd" d="M319.174 85.6447C324.235 80.7864 324.398 72.7452 319.539 67.6851C314.682 62.6261 306.643 62.4626 301.583 67.3199L251.712 115.194L228.193 137.775L202.038 111.62C197.077 106.659 189.034 106.659 184.072 111.62C179.111 116.581 179.111 124.626 184.073 129.587L219.189 164.697C223.989 169.496 231.746 169.574 236.643 164.874L251.713 150.407L319.174 85.6447Z" fill="white"/>
</svg>
