<svg width="3301" height="436" viewBox="0 0 3301 436" fill="none" xmlns="http://www.w3.org/2000/svg">
<path d="M3033.32 226.531C3094.09 226.531 3143.34 177.273 3143.34 116.51C3143.34 55.748 3094.09 6.49023 3033.32 6.49023C2972.56 6.49023 2923.3 55.748 2923.3 116.51C2923.3 177.273 2972.56 226.531 3033.32 226.531Z" fill="white"/>
<path d="M3033.32 226.531C3094.09 226.531 3143.34 177.273 3143.34 116.51C3143.34 55.748 3094.09 6.49023 3033.32 6.49023C2972.56 6.49023 2923.3 55.748 2923.3 116.51C2923.3 177.273 2972.56 226.531 3033.32 226.531Z" fill="#2874F0" stroke="#2874F0" stroke-width="11.5811"/>
<path d="M3019.25 105.902H3029.29C3034.36 105.857 3038.37 104.544 3041.3 101.965C3044.29 99.3874 3045.78 95.6548 3045.78 90.7687C3045.78 86.0645 3044.54 82.4222 3042.05 79.8443C3039.61 77.22 3035.86 75.9079 3030.78 75.9079C3026.35 75.9079 3022.71 77.198 3019.86 79.776C3017.01 82.3099 3015.59 85.6348 3015.59 89.7519H2999.1C2999.1 84.6852 3000.43 80.0701 3003.1 75.9079C3005.81 71.7468 3009.57 68.5122 3014.36 66.2041C3019.2 63.852 3024.61 62.6765 3030.59 62.6765C3040.44 62.6765 3048.18 65.1641 3053.8 70.1405C3059.45 75.0717 3062.27 81.9474 3062.27 90.7687C3062.27 95.2031 3060.85 99.3873 3058 103.323C3055.2 107.214 3051.55 110.154 3047.08 112.144C3052.5 113.999 3056.62 116.918 3059.42 120.898C3062.27 124.88 3063.7 129.629 3063.7 135.149C3063.7 144.015 3060.64 151.073 3054.54 156.32C3048.48 161.567 3040.49 164.192 3030.59 164.192C3021.08 164.192 3013.3 161.658 3007.24 156.591C3001.18 151.524 2998.15 144.784 2998.15 136.369H3014.64C3014.64 140.712 3016.09 144.241 3018.98 146.955C3021.92 149.67 3025.85 151.027 3030.78 151.027C3035.9 151.027 3039.92 149.67 3042.86 146.955C3045.8 144.241 3047.28 140.306 3047.28 135.149C3047.28 129.946 3045.73 125.943 3042.67 123.138C3039.59 120.333 3035.01 118.93 3028.95 118.93H3019.25V105.902Z" fill="white"/>
<path d="M1643.59 226.531C1704.36 226.531 1753.61 177.273 1753.61 116.51C1753.61 55.748 1704.36 6.49023 1643.59 6.49023C1582.83 6.49023 1533.57 55.748 1533.57 116.51C1533.57 177.273 1582.83 226.531 1643.59 226.531Z" fill="#2874F0" stroke="#2874F0" stroke-width="11.5811"/>
<path d="M253.864 226.531C314.626 226.531 363.884 177.273 363.884 116.51C363.884 55.748 314.626 6.49023 253.864 6.49023C193.102 6.49023 143.844 55.748 143.844 116.51C143.844 177.273 193.102 226.531 253.864 226.531Z" fill="#2874F0"/>
<path d="M64.8579 380.251H23.4649L14.1676 406.037H0.732422L38.4612 307.237H49.8616L87.6576 406.037H74.2907L64.8579 380.251ZM27.4001 369.53H60.9899L44.1614 323.318L27.4001 369.53ZM95.9369 368.715C95.9369 357.451 98.6063 348.403 103.944 341.572C109.282 334.696 116.272 331.258 124.912 331.258C133.507 331.258 140.316 334.199 145.337 340.08V301.808H157.891V406.037H146.355L145.745 398.166C140.723 404.319 133.734 407.395 124.776 407.395C116.272 407.395 109.327 403.911 103.944 396.944C98.6063 389.978 95.9369 380.884 95.9369 369.666V368.715ZM108.491 370.141C108.491 378.464 110.209 384.978 113.648 389.684C117.086 394.388 121.836 396.741 127.898 396.741C135.86 396.741 141.673 393.167 145.337 386.019V352.294C141.583 345.372 135.815 341.912 128.034 341.912C121.881 341.912 117.086 344.287 113.648 349.036C110.209 353.787 108.491 360.821 108.491 370.141ZM174.38 368.715C174.38 357.451 177.05 348.403 182.387 341.572C187.726 334.696 194.715 331.258 203.356 331.258C211.951 331.258 218.76 334.199 223.781 340.08V301.808H236.334V406.037H224.798L224.188 398.166C219.166 404.319 212.177 407.395 203.22 407.395C194.715 407.395 187.771 403.911 182.387 396.944C177.05 389.978 174.38 380.884 174.38 369.666V368.715ZM186.934 370.141C186.934 378.464 188.654 384.978 192.091 389.684C195.529 394.388 200.28 396.741 206.342 396.741C214.304 396.741 220.116 393.167 223.781 386.019V352.294C220.026 345.372 214.258 341.912 206.477 341.912C200.325 341.912 195.529 344.287 192.091 349.036C188.654 353.787 186.934 360.821 186.934 370.141ZM291.367 343.879C289.467 343.563 287.409 343.405 285.192 343.405C276.959 343.405 271.372 346.91 268.431 353.922V406.037H255.877V332.616H268.092L268.296 341.098C272.413 334.538 278.248 331.258 285.803 331.258C288.246 331.258 290.1 331.574 291.367 332.208V343.879ZM332.082 407.395C322.129 407.395 314.032 404.137 307.789 397.622C301.546 391.063 298.425 382.31 298.425 371.362V369.054C298.425 361.771 299.804 355.28 302.564 349.58C305.369 343.834 309.259 339.356 314.235 336.143C319.257 332.887 324.685 331.258 330.522 331.258C340.067 331.258 347.486 334.403 352.778 340.69C358.072 346.978 360.718 355.98 360.718 367.698V372.922H310.979C311.159 380.16 313.263 386.019 317.289 390.498C321.36 394.931 326.517 397.148 332.76 397.148C337.194 397.148 340.948 396.243 344.025 394.433C347.101 392.624 349.793 390.227 352.1 387.241L359.768 393.212C353.616 402.667 344.387 407.395 332.082 407.395ZM330.522 341.572C325.455 341.572 321.203 343.428 317.764 347.137C314.326 350.801 312.199 355.958 311.385 362.608H348.164V361.659C347.802 355.28 346.083 350.348 343.007 346.865C339.931 343.336 335.769 341.572 330.522 341.572ZM418.057 386.563C418.057 383.169 416.768 380.545 414.19 378.691C411.657 376.79 407.2 375.162 400.822 373.805C394.489 372.448 389.444 370.819 385.689 368.919C381.98 367.019 379.22 364.757 377.411 362.133C375.646 359.509 374.765 356.388 374.765 352.769C374.765 346.753 377.298 341.663 382.365 337.5C387.476 333.339 393.991 331.258 401.908 331.258C410.232 331.258 416.972 333.407 422.129 337.704C427.332 342.002 429.933 347.498 429.933 354.193H417.312C417.312 350.756 415.841 347.793 412.9 345.305C410.005 342.816 406.341 341.572 401.908 341.572C397.339 341.572 393.765 342.567 391.186 344.558C388.608 346.549 387.318 349.15 387.318 352.361C387.318 355.393 388.518 357.677 390.915 359.215C393.312 360.753 397.633 362.224 403.875 363.626C410.164 365.029 415.254 366.702 419.144 368.648C423.034 370.593 425.907 372.946 427.761 375.705C429.662 378.419 430.611 381.744 430.611 385.68C430.611 392.24 427.988 397.51 422.74 401.49C417.492 405.427 410.684 407.395 402.315 407.395C396.434 407.395 391.231 406.353 386.707 404.273C382.184 402.192 378.632 399.297 376.054 395.588C373.52 391.832 372.254 387.783 372.254 383.44H384.808C385.034 387.648 386.707 390.996 389.829 393.483C392.996 395.927 397.158 397.148 402.315 397.148C407.065 397.148 410.866 396.198 413.714 394.298C416.61 392.353 418.057 389.774 418.057 386.563ZM489.715 386.563C489.715 383.169 488.426 380.545 485.848 378.691C483.314 376.79 478.858 375.162 472.48 373.805C466.147 372.448 461.102 370.819 457.347 368.919C453.638 367.019 450.878 364.757 449.069 362.133C447.304 359.509 446.423 356.388 446.423 352.769C446.423 346.753 448.956 341.663 454.022 337.5C459.134 333.339 465.649 331.258 473.565 331.258C481.89 331.258 488.63 333.407 493.787 337.704C498.989 342.002 501.59 347.498 501.59 354.193H488.969C488.969 350.756 487.499 347.793 484.558 345.305C481.663 342.816 477.999 341.572 473.565 341.572C468.997 341.572 465.423 342.567 462.844 344.558C460.266 346.549 458.976 349.15 458.976 352.361C458.976 355.393 460.175 357.677 462.573 359.215C464.97 360.753 469.291 362.224 475.533 363.626C481.822 365.029 486.912 366.702 490.802 368.648C494.692 370.593 497.565 372.946 499.419 375.705C501.319 378.419 502.269 381.744 502.269 385.68C502.269 392.24 499.646 397.51 494.397 401.49C489.15 405.427 482.342 407.395 473.973 407.395C468.092 407.395 462.889 406.353 458.365 404.273C453.842 402.192 450.29 399.297 447.712 395.588C445.178 391.832 443.912 387.783 443.912 383.44H456.466C456.692 387.648 458.365 390.996 461.486 393.483C464.654 395.927 468.816 397.148 473.973 397.148C478.723 397.148 482.523 396.198 485.372 394.298C488.268 392.353 489.715 389.774 489.715 386.563Z" fill="#212121"/>
<path d="M1243.13 359.826C1243.13 369.507 1241.49 377.967 1238.24 385.205C1234.98 392.398 1230.36 397.895 1224.4 401.694C1218.42 405.494 1211.45 407.395 1203.49 407.395C1195.71 407.395 1188.81 405.494 1182.8 401.694C1176.78 397.849 1172.1 392.398 1168.75 385.341C1165.45 378.238 1163.75 370.027 1163.66 360.708V353.583C1163.66 344.083 1165.31 335.692 1168.61 328.408C1171.91 321.125 1176.58 315.56 1182.59 311.715C1188.66 307.824 1195.57 305.88 1203.36 305.88C1211.28 305.88 1218.24 307.802 1224.26 311.647C1230.32 315.447 1234.98 320.988 1238.24 328.273C1241.49 335.511 1243.13 343.948 1243.13 353.583V359.826ZM1230.17 353.448C1230.17 341.731 1227.8 332.751 1223.1 326.508C1218.4 320.219 1211.82 317.076 1203.36 317.076C1195.12 317.076 1188.64 320.219 1183.88 326.508C1179.17 332.751 1176.75 341.437 1176.63 352.565V359.826C1176.63 371.181 1179 380.115 1183.75 386.63C1188.54 393.099 1195.12 396.333 1203.49 396.333C1211.9 396.333 1218.42 393.28 1223.03 387.173C1227.65 381.02 1230.03 372.222 1230.17 360.776V353.448ZM1296.19 343.879C1294.29 343.563 1292.23 343.405 1290.02 343.405C1281.78 343.405 1276.19 346.91 1273.25 353.922V406.037H1260.69V332.616H1272.91L1273.12 341.098C1277.23 334.538 1283.07 331.258 1290.62 331.258C1293.06 331.258 1294.92 331.574 1296.19 332.208V343.879ZM1303.38 368.715C1303.38 357.451 1306.05 348.403 1311.38 341.572C1316.72 334.696 1323.72 331.258 1332.36 331.258C1340.95 331.258 1347.76 334.199 1352.78 340.08V301.808H1365.33V406.037H1353.79L1353.19 398.166C1348.17 404.319 1341.18 407.395 1332.22 407.395C1323.72 407.395 1316.77 403.911 1311.38 396.944C1306.05 389.978 1303.38 380.884 1303.38 369.666V368.715ZM1315.94 370.141C1315.94 378.464 1317.65 384.978 1321.09 389.684C1324.53 394.388 1329.28 396.741 1335.35 396.741C1343.3 396.741 1349.12 393.167 1352.78 386.019V352.294C1349.02 345.372 1343.26 341.912 1335.47 341.912C1329.32 341.912 1324.53 344.287 1321.09 349.036C1317.65 353.787 1315.94 360.821 1315.94 370.141ZM1415.35 407.395C1405.39 407.395 1397.29 404.137 1391.05 397.622C1384.81 391.063 1381.69 382.31 1381.69 371.362V369.054C1381.69 361.771 1383.07 355.28 1385.83 349.58C1388.63 343.834 1392.52 339.356 1397.5 336.143C1402.52 332.887 1407.95 331.258 1413.78 331.258C1423.33 331.258 1430.75 334.403 1436.04 340.69C1441.34 346.978 1443.98 355.98 1443.98 367.698V372.922H1394.25C1394.42 380.16 1396.53 386.019 1400.55 390.498C1404.62 394.931 1409.78 397.148 1416.02 397.148C1420.45 397.148 1424.21 396.243 1427.29 394.433C1430.37 392.624 1433.06 390.227 1435.36 387.241L1443.03 393.212C1436.88 402.667 1427.65 407.395 1415.35 407.395ZM1413.78 341.572C1408.72 341.572 1404.46 343.428 1401.02 347.137C1397.59 350.801 1395.46 355.958 1394.65 362.608H1431.42V361.659C1431.06 355.28 1429.35 350.348 1426.27 346.865C1423.2 343.336 1419.03 341.572 1413.78 341.572ZM1494.06 343.879C1492.16 343.563 1490.1 343.405 1487.88 343.405C1479.66 343.405 1474.06 346.91 1471.12 353.922V406.037H1458.57V332.616H1470.79L1470.98 341.098C1475.11 334.538 1480.94 331.258 1488.49 331.258C1490.94 331.258 1492.79 331.574 1494.06 332.208V343.879ZM1571.22 361.998C1560.04 358.785 1551.9 354.85 1546.78 350.19C1541.72 345.486 1539.18 339.695 1539.18 332.818C1539.18 325.038 1542.29 318.614 1548.48 313.547C1554.73 308.435 1562.82 305.88 1572.78 305.88C1579.56 305.88 1585.6 307.19 1590.89 309.815C1596.23 312.439 1600.34 316.058 1603.24 320.672C1606.18 325.286 1607.65 330.331 1607.65 335.804H1594.55C1594.55 329.833 1592.65 325.15 1588.86 321.758C1585.06 318.32 1579.69 316.6 1572.78 316.6C1566.35 316.6 1561.33 318.026 1557.71 320.876C1554.14 323.681 1552.35 327.594 1552.35 332.616C1552.35 336.641 1554.04 340.056 1557.44 342.861C1560.88 345.621 1566.69 348.155 1574.88 350.462C1583.11 352.769 1589.54 355.325 1594.15 358.13C1598.81 360.89 1602.24 364.124 1604.47 367.834C1606.72 371.543 1607.86 375.908 1607.86 380.929C1607.86 388.937 1604.73 395.361 1598.49 400.202C1592.25 404.997 1583.9 407.395 1573.45 407.395C1566.67 407.395 1560.33 406.106 1554.46 403.526C1548.58 400.902 1544.02 397.328 1540.82 392.805C1537.64 388.281 1536.07 383.146 1536.07 377.401H1549.16C1549.16 383.373 1551.36 388.1 1555.74 391.584C1560.18 395.021 1566.08 396.741 1573.45 396.741C1580.33 396.741 1585.6 395.339 1589.26 392.534C1592.93 389.729 1594.76 385.906 1594.76 381.066C1594.76 376.225 1593.07 372.493 1589.68 369.87C1586.28 367.2 1580.12 364.576 1571.22 361.998ZM1667.98 398.776C1663.09 404.521 1655.92 407.395 1646.47 407.395C1638.64 407.395 1632.67 405.133 1628.55 400.608C1624.48 396.039 1622.43 389.299 1622.38 380.387V332.616H1634.94V380.048C1634.94 391.176 1639.45 396.741 1648.51 396.741C1658.1 396.741 1664.48 393.167 1667.64 386.019V332.616H1680.19V406.037H1668.25L1667.98 398.776ZM1711.14 332.616L1711.48 340.758C1716.86 334.425 1724.12 331.258 1733.26 331.258C1743.53 331.258 1750.52 335.194 1754.23 343.065C1756.66 339.536 1759.84 336.686 1763.73 334.515C1767.67 332.343 1772.3 331.258 1777.64 331.258C1793.75 331.258 1801.94 339.785 1802.2 356.841V406.037H1789.65V357.587C1789.65 352.339 1788.45 348.426 1786.06 345.847C1783.66 343.224 1779.63 341.912 1773.98 341.912C1769.31 341.912 1765.44 343.314 1762.37 346.119C1759.29 348.879 1757.51 352.61 1757.01 357.316V406.037H1744.39V357.926C1744.39 347.249 1739.17 341.912 1728.71 341.912C1720.47 341.912 1714.85 345.417 1711.81 352.43V406.037H1699.26V332.616H1711.14ZM1833.01 332.616L1833.35 340.758C1838.73 334.425 1845.99 331.258 1855.13 331.258C1865.4 331.258 1872.39 335.194 1876.1 343.065C1878.54 339.536 1881.71 336.686 1885.6 334.515C1889.53 332.343 1894.18 331.258 1899.51 331.258C1915.62 331.258 1923.8 339.785 1924.08 356.841V406.037H1911.53V357.587C1911.53 352.339 1910.32 348.426 1907.93 345.847C1905.53 343.224 1901.5 341.912 1895.85 341.912C1891.19 341.912 1887.32 343.314 1884.24 346.119C1881.16 348.879 1879.38 352.61 1878.88 357.316V406.037H1866.26V357.926C1866.26 347.249 1861.03 341.912 1850.59 341.912C1842.35 341.912 1836.72 345.417 1833.69 352.43V406.037H1821.14V332.616H1833.01ZM1988.4 406.037C1987.68 404.59 1987.09 402.011 1986.64 398.301C1980.8 404.364 1973.83 407.395 1965.74 407.395C1958.5 407.395 1952.56 405.359 1947.89 401.287C1943.28 397.171 1940.98 391.969 1940.98 385.68C1940.98 378.034 1943.87 372.108 1949.66 367.901C1955.49 363.648 1963.68 361.522 1974.23 361.522H1986.43V355.755C1986.43 351.366 1985.12 347.883 1982.5 345.305C1979.88 342.681 1976.01 341.369 1970.9 341.369C1966.42 341.369 1962.67 342.5 1959.63 344.762C1956.6 347.024 1955.08 349.76 1955.08 352.973H1942.46C1942.46 349.309 1943.76 345.78 1946.33 342.387C1948.96 338.948 1952.49 336.235 1956.91 334.244C1961.39 332.253 1966.31 331.258 1971.64 331.258C1980.1 331.258 1986.73 333.385 1991.53 337.637C1996.32 341.843 1998.81 347.657 1998.99 355.076V388.869C1998.99 395.61 1999.86 400.971 2001.57 404.951V406.037H1988.4ZM1967.57 396.469C1971.51 396.469 1975.25 395.451 1978.77 393.416C1982.3 391.38 1984.86 388.734 1986.43 385.476V370.412H1976.6C1961.22 370.412 1953.53 374.913 1953.53 383.915C1953.53 387.852 1954.84 390.927 1957.46 393.144C1960.09 395.361 1963.46 396.469 1967.57 396.469ZM2054.16 343.879C2052.26 343.563 2050.2 343.405 2047.99 343.405C2039.75 343.405 2034.16 346.91 2031.22 353.922V406.037H2018.67V332.616H2030.88L2031.09 341.098C2035.2 334.538 2041.04 331.258 2048.59 331.258C2051.03 331.258 2052.9 331.574 2054.16 332.208V343.879ZM2091.01 387.648L2108.1 332.616H2121.54L2092.02 417.369C2087.45 429.584 2080.19 435.691 2070.25 435.691L2067.87 435.488L2063.18 434.605V424.427L2066.57 424.698C2070.82 424.698 2074.14 423.838 2076.49 422.12C2078.88 420.4 2080.85 417.257 2082.38 412.687L2085.17 405.223L2058.98 332.616H2072.69L2091.01 387.648Z" fill="#666666"/>
<path d="M2785.44 367.358V406.037H2772.41V307.236H2808.85C2819.66 307.236 2828.12 309.995 2834.23 315.514C2840.38 321.034 2843.46 328.339 2843.46 337.433C2843.46 347.023 2840.45 354.42 2834.44 359.622C2828.46 364.779 2819.89 367.358 2808.71 367.358H2785.44ZM2785.44 356.703H2808.85C2815.81 356.703 2821.15 355.075 2824.87 351.819C2828.58 348.516 2830.43 343.765 2830.43 337.568C2830.43 331.687 2828.58 326.982 2824.87 323.453C2821.15 319.925 2816.07 318.092 2809.6 317.957H2785.44V356.703ZM2902.63 406.037C2901.91 404.589 2901.32 402.01 2900.87 398.3C2895.03 404.363 2888.07 407.394 2879.96 407.394C2872.72 407.394 2866.78 405.358 2862.12 401.286C2857.51 397.17 2855.2 391.968 2855.2 385.679C2855.2 378.033 2858.1 372.107 2863.89 367.9C2869.72 363.647 2877.91 361.521 2888.45 361.521H2900.66V355.754C2900.66 351.366 2899.35 347.882 2896.73 345.304C2894.1 342.68 2890.23 341.368 2885.13 341.368C2880.64 341.368 2876.89 342.499 2873.86 344.761C2870.82 347.023 2869.31 349.759 2869.31 352.972H2856.7C2856.7 349.308 2857.98 345.779 2860.56 342.386C2863.18 338.947 2866.71 336.234 2871.15 334.243C2875.62 332.252 2880.53 331.258 2885.87 331.258C2894.33 331.258 2900.96 333.384 2905.75 337.636C2910.55 341.843 2913.04 347.656 2913.21 355.075V388.869C2913.21 395.609 2914.08 400.97 2915.79 404.95V406.037H2902.63ZM2881.8 396.468C2885.73 396.468 2889.47 395.45 2892.99 393.415C2896.52 391.379 2899.08 388.733 2900.66 385.476V370.411H2890.82C2875.45 370.411 2867.76 374.912 2867.76 383.914C2867.76 387.851 2869.06 390.927 2871.68 393.143C2874.31 395.36 2877.68 396.468 2881.8 396.468ZM2955.83 387.647L2972.93 332.615H2986.37L2956.85 417.369C2952.27 429.583 2945.02 435.69 2935.06 435.69L2932.69 435.487L2928.01 434.605V424.426L2931.4 424.697C2935.66 424.697 2938.96 423.838 2941.31 422.119C2943.7 420.399 2945.67 417.256 2947.21 412.686L2949.99 405.222L2923.8 332.615H2937.51L2955.83 387.647ZM3009.44 332.615L3009.77 340.757C3015.16 334.424 3022.42 331.258 3031.56 331.258C3041.83 331.258 3048.81 335.193 3052.53 343.064C3054.97 339.536 3058.14 336.686 3062.03 334.514C3065.97 332.343 3070.6 331.258 3075.94 331.258C3092.05 331.258 3100.23 339.785 3100.5 356.84V406.037H3087.95V357.586C3087.95 352.339 3086.75 348.425 3084.36 345.846C3081.96 343.223 3077.93 341.911 3072.28 341.911C3067.61 341.911 3063.74 343.313 3060.67 346.118C3057.59 348.878 3055.81 352.61 3055.31 357.315V406.037H3042.69V357.925C3042.69 347.249 3037.46 341.911 3027.02 341.911C3018.78 341.911 3013.14 345.417 3010.12 352.429V406.037H2997.57V332.615H3009.44ZM3149.97 407.394C3140.01 407.394 3131.92 404.136 3125.68 397.622C3119.43 391.062 3116.32 382.309 3116.32 371.362V369.054C3116.32 361.77 3117.7 355.279 3120.45 349.579C3123.26 343.833 3127.15 339.355 3132.13 336.142C3137.14 332.886 3142.57 331.258 3148.41 331.258C3157.95 331.258 3165.38 334.402 3170.67 340.689C3175.96 346.978 3178.6 355.98 3178.6 367.697V372.922H3128.87C3129.05 380.16 3131.16 386.019 3135.17 390.497C3139.25 394.93 3144.4 397.147 3150.65 397.147C3155.08 397.147 3158.83 396.242 3161.91 394.432C3164.99 392.623 3167.68 390.226 3169.99 387.24L3177.65 393.212C3171.5 402.666 3162.27 407.394 3149.97 407.394ZM3148.41 341.572C3143.35 341.572 3139.09 343.427 3135.65 347.136C3132.22 350.801 3130.09 355.958 3129.28 362.608H3166.05V361.658C3165.69 355.279 3163.98 350.348 3160.9 346.864C3157.83 343.335 3153.66 341.572 3148.41 341.572ZM3205.08 332.615L3205.48 341.843C3211.09 334.786 3218.42 331.258 3227.46 331.258C3242.98 331.258 3250.81 340.011 3250.95 357.518V406.037H3238.4V357.45C3238.35 352.158 3237.12 348.245 3234.72 345.711C3232.37 343.178 3228.69 341.911 3223.66 341.911C3219.59 341.911 3216.02 342.996 3212.94 345.168C3209.87 347.339 3207.47 350.189 3205.75 353.718V406.037H3193.19V332.615H3205.08ZM3286.91 314.836V332.615H3300.62V342.317H3286.91V387.851C3286.91 390.791 3287.52 393.008 3288.74 394.501C3289.97 395.948 3292.04 396.672 3294.98 396.672C3296.43 396.672 3298.42 396.401 3300.96 395.858V406.037C3297.66 406.941 3294.44 407.394 3291.32 407.394C3285.7 407.394 3281.48 405.697 3278.63 402.304C3275.78 398.912 3274.36 394.094 3274.36 387.851V342.317H3260.99V332.615H3274.36V314.836H3286.91Z" fill="#666666"/>
<path fill-rule="evenodd" clip-rule="evenodd" d="M462.322 110.72H1435.13V122.301H462.322V110.72Z" fill="#DBDBDB"/>
<path fill-rule="evenodd" clip-rule="evenodd" d="M1876 110.72H2848.81V122.301H1876V110.72Z" fill="#DBDBDB"/>
<path fill-rule="evenodd" clip-rule="evenodd" d="M319.174 86.1845C324.235 81.3262 324.398 73.285 319.539 68.2249C314.682 63.1659 306.643 63.0024 301.583 67.8597L251.712 115.734L228.193 138.314L202.038 112.16C197.077 107.199 189.034 107.199 184.072 112.16C179.111 117.121 179.111 125.165 184.073 130.126L219.189 165.237C223.989 170.036 231.746 170.114 236.643 165.414L251.713 150.947L319.174 86.1845Z" fill="white"/>
<path fill-rule="evenodd" clip-rule="evenodd" d="M1711.82 86.1845C1716.88 81.3262 1717.05 73.285 1712.19 68.2249C1707.33 63.1659 1699.29 63.0024 1694.23 67.8597L1644.36 115.734L1620.84 138.314L1594.69 112.16C1589.73 107.199 1581.68 107.199 1576.72 112.16C1571.76 117.121 1571.76 125.165 1576.72 130.126L1611.84 165.237C1616.64 170.036 1624.39 170.114 1629.29 165.414L1644.36 150.947L1711.82 86.1845Z" fill="white"/>
</svg>
