<svg width="80" height="16" viewBox="0 0 148 26" fill="none" xmlns="http://www.w3.org/2000/svg">
<path fill="#D3D3D3" d="M25.2845 8.31809L18.5085 7.33329L15.4785 1.19346C15.1179 0.462711 14.3737 0 13.5587 0C12.7438 0 11.9996 0.462711 11.639 1.19346L8.60894 7.33329L1.83298 8.31809C1.02659 8.43526 0.356505 9.00016 0.104883 9.77515C-0.147024 10.5501 0.0630648 11.4009 0.646662 11.9697L5.54965 16.7489L4.39231 23.4972C4.25458 24.3004 4.58484 25.1121 5.24408 25.5911C5.90318 26.0699 6.77708 26.1333 7.49869 25.7541L13.5587 22.5681L19.6191 25.7541C19.9324 25.9188 20.2745 26 20.6151 26C20.6176 26 20.6199 26 20.6223 26C21.8028 25.9979 22.7591 25.0402 22.7591 23.8591C22.7591 23.6947 22.7406 23.5346 22.7056 23.3807L21.5681 16.7489L26.471 11.9697C27.0546 11.4009 27.2647 10.5501 27.0127 9.77515C26.761 9.00016 26.091 8.43526 25.2845 8.31809Z"/>
<path fill="#D3D3D3" d="M55.4022 8.31809L48.6262 7.33329L45.5962 1.19346C45.2355 0.462711 44.4914 0 43.6764 0C42.8615 0 42.1173 0.462711 41.7566 1.19346L38.7266 7.33329L31.9507 8.31809C31.1443 8.43526 30.4742 9.00016 30.2226 9.77515C29.9707 10.5501 30.1807 11.4009 30.7643 11.9697L35.6673 16.7489L34.51 23.4972C34.3723 24.3004 34.7025 25.1121 35.3618 25.5911C36.0209 26.0699 36.8948 26.1333 37.6164 25.7541L43.6764 22.5681L49.7368 25.7541C50.05 25.9188 50.3921 26 50.7328 26C50.7353 26 50.7375 26 50.74 26C51.9204 25.9979 52.8768 25.0402 52.8768 23.8591C52.8768 23.6947 52.8583 23.5346 52.8233 23.3807L51.6858 16.7489L56.5886 11.9697C57.1722 11.4009 57.3823 10.5501 57.1304 9.77515C56.8787 9.00016 56.2087 8.43526 55.4022 8.31809Z"/>
<path fill="#D3D3D3" d="M85.5199 8.31809L78.7439 7.33329L75.7139 1.19346C75.3532 0.462711 74.609 0 73.7941 0C72.9791 0 72.235 0.462711 71.8743 1.19346L68.8443 7.33329L62.0683 8.31809C61.2619 8.43526 60.5919 9.00016 60.3402 9.77515C60.0883 10.5501 60.2984 11.4009 60.882 11.9697L65.785 16.7489L64.6277 23.4972C64.4899 24.3004 64.8202 25.1121 65.4794 25.5911C66.1385 26.0699 67.0124 26.1333 67.734 25.7541L73.7941 22.5681L79.8544 25.7541C80.1677 25.9188 80.5098 26 80.8505 26C80.8529 26 80.8552 26 80.8576 26C82.0381 25.9979 82.9945 25.0402 82.9945 23.8591C82.9945 23.6947 82.9759 23.5346 82.941 23.3807L81.8035 16.7489L86.7063 11.9697C87.2899 11.4009 87.5 10.5501 87.2481 9.77515C86.9963 9.00016 86.3264 8.43526 85.5199 8.31809Z"/>
<path fill="#D3D3D3" d="M115.638 8.31809L108.862 7.33329L105.832 1.19346C105.471 0.46271 104.727 0 103.912 0C103.097 0 102.353 0.46271 101.992 1.19346L98.962 7.33329L92.186 8.31809C91.3796 8.43526 90.7095 9.00016 90.4579 9.77515C90.206 10.5501 90.4161 11.4009 90.9997 11.9697L95.9027 16.7489L94.7453 23.4972C94.6076 24.3004 94.9379 25.1121 95.5971 25.5911C96.2562 26.0699 97.1301 26.1333 97.8517 25.7541L103.912 22.5681L109.972 25.7541C110.285 25.9188 110.627 26 110.968 26C110.971 26 110.973 26 110.975 26C112.156 25.9979 113.112 25.0402 113.112 23.8591C113.112 23.6947 113.094 23.5346 113.059 23.3807L111.921 16.7489L116.824 11.9697C117.408 11.4009 117.618 10.5501 117.366 9.77515C117.114 9.00016 116.444 8.43526 115.638 8.31809Z"/>
<path fill="#D3D3D3" d="M145.755 8.31809L138.979 7.33329L135.949 1.19346C135.589 0.462711 134.844 0 134.029 0C133.214 0 132.47 0.462711 132.11 1.19346L129.08 7.33329L122.304 8.31809C121.497 8.43526 120.827 9.00016 120.576 9.77515C120.324 10.5501 120.534 11.4009 121.117 11.9697L126.02 16.7489L124.863 23.4972C124.725 24.3004 125.056 25.1121 125.715 25.5911C126.374 26.0699 127.248 26.1333 127.969 25.7541L134.029 22.5681L140.09 25.7541C140.403 25.9188 140.745 26 141.086 26C141.088 26 141.091 26 141.093 26C142.273 25.9979 143.23 25.0402 143.23 23.8591C143.23 23.6947 143.211 23.5346 143.176 23.3807L142.039 16.7489L146.942 11.9697C147.525 11.4009 147.735 10.5501 147.483 9.77515C147.232 9.00016 146.562 8.43526 145.755 8.31809Z"/>
</svg>
