<svg width="24" height="24" viewBox="0 0 24 24" fill="none" xmlns="http://www.w3.org/2000/svg">
<path d="M11.2932 23C8.44292 22.8163 5.77581 21.53 3.85591 19.4132C1.93601 17.2964 0.913879 14.515 1.00569 11.6574C1.0975 8.79978 2.29606 6.08994 4.34787 4.101C6.39967 2.11207 9.14385 1 12 1C14.8562 1 17.6003 2.11207 19.6521 4.101C21.7039 6.08994 22.9025 8.79978 22.9943 11.6574C23.0861 14.515 22.064 17.2964 20.1441 19.4132C18.2242 21.53 15.5571 22.8163 12.7068 23V13.9786C13.1414 13.8132 13.5042 13.5005 13.7323 13.0949C13.9604 12.6894 14.0392 12.2167 13.9552 11.759C13.8712 11.3012 13.6295 10.8875 13.2723 10.5896C12.9151 10.2918 12.4649 10.1287 12 10.1287C11.5351 10.1287 11.0849 10.2918 10.7277 10.5896C10.3705 10.8875 10.1288 11.3012 10.0448 11.759C9.96076 12.2167 10.0396 12.6894 10.2677 13.0949C10.4958 13.5005 10.8586 13.8132 11.2932 13.9786" fill="#1166DD"/>
</svg>
