<svg width="30" height="30" fill="none" viewBox="0 0 30 13" xmlns="http://www.w3.org/2000/svg">
    <path d="M.65 11.971v-10.7h28.7v10.7H.65Z" stroke="#2A55E5" stroke-width="1.3" stroke-linecap="square"></path>
    <path fill="#878787" stroke="#2A55E5" stroke-width="0.5" stroke-linecap="round" stroke-linejoin="round" d="M6.25 8.871h.5v3.5h-.5z"></path>
    <mask id="a" fill="#fff">
        <path fill-rule="evenodd" clip-rule="evenodd" d="M10 5.621h1v7h-1v-7Z"></path>
    </mask>
    <path fill-rule="evenodd" clip-rule="evenodd" d="M10 5.621h1v7h-1v-7Z" fill="#878787"></path>
    <path d="M10 5.621v-1.3a1.3 1.3 0 0 0-1.3 1.3H10Zm1 0h1.3a1.3 1.3 0 0 0-1.3-1.3v1.3Zm0 7v1.3a1.3 1.3 0 0 0 1.3-1.3H11Zm-1 0H8.7a1.3 1.3 0 0 0 1.3 1.3v-1.3Zm0-5.7h1v-2.6h-1v2.6Zm-.3-1.3v7h2.6v-7H9.7Zm1.3 5.7h-1v2.6h1v-2.6Zm.3 1.3v-7H8.7v7h2.6Z" fill="#2A55E5" mask="url(#a)"></path>
    <mask id="b" fill="#fff">
        <path fill-rule="evenodd" clip-rule="evenodd" d="M15 8.621h1v4h-1v-4Z"></path>
    </mask>
    <path fill-rule="evenodd" clip-rule="evenodd" d="M15 8.621h1v4h-1v-4Z" fill="#878787"></path>
    <path d="M15 8.621v-1.3a1.3 1.3 0 0 0-1.3 1.3H15Zm1 0h1.3a1.3 1.3 0 0 0-1.3-1.3v1.3Zm0 4v1.3a1.3 1.3 0 0 0 1.3-1.3H16Zm-1 0h-1.3a1.3 1.3 0 0 0 1.3 1.3v-1.3Zm0-2.7h1v-2.6h-1v2.6Zm-.3-1.3v4h2.6v-4h-2.6Zm1.3 2.7h-1v2.6h1v-2.6Zm.3 1.3v-4h-2.6v4h2.6Z" fill="#2A55E5" mask="url(#b)"></path>
    <path fill="#878787" stroke="#2A55E5" stroke-width="0.5" stroke-linecap="round" stroke-linejoin="round" d="M19.25 5.871h.5v6.5h-.5zM23.25 8.871h.5v3.5h-.5z"></path>
</svg>
