<svg width="40" height="40" viewBox="0 0 40 40" fill="none" xmlns="http://www.w3.org/2000/svg">
<g opacity="0.7">
<path d="M15.7813 16.875C15.7813 17.1531 15.6988 17.425 15.5443 17.6563C15.3897 17.8875 15.1701 18.0678 14.9131 18.1742C14.6562 18.2806 14.3734 18.3085 14.1006 18.2542C13.8279 18.2 13.5773 18.066 13.3806 17.8694C13.184 17.6727 13.05 17.4221 12.9958 17.1493C12.9415 16.8765 12.9694 16.5938 13.0758 16.3368C13.1822 16.0799 13.3625 15.8602 13.5938 15.7057C13.825 15.5512 14.0969 15.4687 14.375 15.4688C14.5597 15.4688 14.7426 15.5051 14.9132 15.5758C15.0838 15.6465 15.2388 15.7501 15.3694 15.8806C15.5 16.0112 15.6036 16.1662 15.6742 16.3369C15.7449 16.5075 15.7813 16.6903 15.7813 16.875Z" fill="#9E9E9E"/>
<path d="M27.0313 16.875C27.0313 17.1531 26.9488 17.425 26.7943 17.6563C26.6397 17.8875 26.4201 18.0678 26.1631 18.1742C25.9062 18.2806 25.6234 18.3085 25.3506 18.2542C25.0779 18.2 24.8273 18.066 24.6306 17.8694C24.434 17.6727 24.3 17.4221 24.2458 17.1493C24.1915 16.8765 24.2194 16.5938 24.3258 16.3368C24.4322 16.0799 24.6125 15.8602 24.8438 15.7057C25.075 15.5512 25.3469 15.4687 25.625 15.4688C25.8097 15.4688 25.9926 15.5051 26.1632 15.5758C26.3338 15.6465 26.4888 15.7501 26.6194 15.8806C26.75 16.0112 26.8536 16.1662 26.9242 16.3369C26.9949 16.5075 27.0313 16.6903 27.0313 16.875Z" fill="#9E9E9E"/>
<path d="M20 35C28.2843 35 35 28.2843 35 20C35 11.7157 28.2843 5 20 5C11.7157 5 5 11.7157 5 20C5 28.2843 11.7157 35 20 35Z" stroke="#9E9E9E" stroke-width="2" stroke-linecap="round" stroke-linejoin="round"/>
<path d="M26.4966 23.7494C25.8376 24.8891 24.8905 25.8354 23.7502 26.4933C22.6098 27.1512 21.3165 27.4976 20 27.4976C18.6835 27.4976 17.3902 27.1513 16.2499 26.4934C15.1096 25.8355 14.1624 24.8892 13.5034 23.7495" stroke="#9E9E9E" stroke-width="2" stroke-linecap="round" stroke-linejoin="round"/>
</g>
</svg>
