<svg width="24" height="24" viewBox="0 0 24 24" fill="none" xmlns="http://www.w3.org/2000/svg">
<path d="M20.5078 9V6.5C20.5078 5.94772 20.0848 5.5 19.5629 5.5H4.44511C3.92327 5.5 3.50024 5.94772 3.50024 6.5V17.5C3.50024 18.0523 3.92327 18.5 4.44511 18.5H19.5629C20.0848 18.5 20.5078 18.0523 20.5078 17.5V15.0123" stroke="#202224" stroke-width="1.4"/>
<path d="M14.4109 12C14.4109 10.6116 15.5894 9.48621 17.0432 9.48621H21.0175C21.2455 9.48621 21.4304 9.66275 21.4304 9.88053V14.1195C21.4304 14.3372 21.2455 14.5138 21.0175 14.5138H17.0432C15.5894 14.5138 14.4109 13.3884 14.4109 12Z" stroke="#202224" stroke-width="1.4"/>
<path d="M17.4 12C17.4 12.2209 17.2209 12.4 17 12.4C16.7791 12.4 16.6 12.2209 16.6 12C16.6 11.7791 16.7791 11.6 17 11.6C17.2209 11.6 17.4 11.7791 17.4 12Z" fill="#202224" stroke="#202224" stroke-width="1.2"/>
</svg>
